G04 #@! TF.GenerationSoftware,KiCad,Pcbnew,(5.0.2)-1*
G04 #@! TF.CreationDate,2019-07-28T22:47:38+08:00*
G04 #@! TF.ProjectId,I2CS,49324353-2e6b-4696-9361-645f70636258,rev?*
G04 #@! TF.SameCoordinates,Original*
G04 #@! TF.FileFunction,Copper,L2,Bot*
G04 #@! TF.FilePolarity,Positive*
%FSLAX46Y46*%
G04 Gerber Fmt 4.6, Leading zero omitted, Abs format (unit mm)*
G04 Created by KiCad (PCBNEW (5.0.2)-1) date 2019-07-28 22:47:38*
%MOMM*%
%LPD*%
G01*
G04 APERTURE LIST*
G04 #@! TA.AperFunction,ComponentPad*
%ADD10O,1.500000X1.500000*%
G04 #@! TD*
G04 #@! TA.AperFunction,SMDPad,CuDef*
%ADD11O,3.000000X5.000000*%
G04 #@! TD*
G04 #@! TA.AperFunction,ComponentPad*
%ADD12O,1.500000X5.000000*%
G04 #@! TD*
G04 #@! TA.AperFunction,ViaPad*
%ADD13C,0.800000*%
G04 #@! TD*
G04 #@! TA.AperFunction,Conductor*
%ADD14C,0.250000*%
G04 #@! TD*
G04 #@! TA.AperFunction,Conductor*
%ADD15C,0.254000*%
G04 #@! TD*
G04 APERTURE END LIST*
D10*
G04 #@! TO.P,REF\002A\002A,1*
G04 #@! TO.N,GND*
X123207780Y-98051620D03*
G04 #@! TD*
D11*
G04 #@! TO.P,BT1,2*
G04 #@! TO.N,GND*
X141975840Y-104056180D03*
D12*
G04 #@! TO.P,BT1,1*
G04 #@! TO.N,+3V3*
X146903440Y-109481620D03*
X121503440Y-109481620D03*
G04 #@! TD*
D13*
G04 #@! TO.N,GND*
X125961140Y-118003320D03*
X143946880Y-99220020D03*
X144434560Y-97043240D03*
X132566107Y-121639027D03*
X132689600Y-117060980D03*
X136380220Y-118229380D03*
X139913360Y-117055900D03*
G04 #@! TO.N,SDA*
X129029460Y-118125240D03*
X136268460Y-119580660D03*
X142114690Y-110658490D03*
X142112150Y-117095690D03*
G04 #@! TO.N,SCL*
X132006340Y-119540020D03*
X137269220Y-120398540D03*
X143357600Y-116166900D03*
X143758925Y-108064305D03*
G04 #@! TD*
D14*
G04 #@! TO.N,SDA*
X138553198Y-119580660D02*
X137121165Y-119580660D01*
X137121165Y-119580660D02*
X136268460Y-119580660D01*
X133230620Y-119580660D02*
X136268460Y-119580660D01*
X129029460Y-118125240D02*
X131775200Y-118125240D01*
X131775200Y-118125240D02*
X133230620Y-119580660D01*
X142114690Y-117093150D02*
X142112150Y-117095690D01*
X142114690Y-110658490D02*
X142114690Y-117093150D01*
X142112150Y-117442830D02*
X142112150Y-117095690D01*
X137121165Y-119580660D02*
X139974320Y-119580660D01*
X139974320Y-119580660D02*
X142112150Y-117442830D01*
G04 #@! TO.N,SCL*
X132864860Y-120398540D02*
X136703535Y-120398540D01*
X132006340Y-119540020D02*
X132864860Y-120398540D01*
X136703535Y-120398540D02*
X137269220Y-120398540D01*
X143136615Y-108064305D02*
X143758925Y-108064305D01*
X142521940Y-108678980D02*
X143136615Y-108064305D01*
X142521940Y-110040420D02*
X142521940Y-108678980D01*
X143357600Y-116166900D02*
X143357600Y-110876080D01*
X143357600Y-110876080D02*
X142521940Y-110040420D01*
X143357600Y-116732585D02*
X143357600Y-116166900D01*
X139834620Y-120398540D02*
X143357600Y-116875560D01*
X143357600Y-116875560D02*
X143357600Y-116732585D01*
X137269220Y-120398540D02*
X139834620Y-120398540D01*
G04 #@! TD*
D15*
G04 #@! TO.N,GND*
G36*
X145349112Y-96981801D02*
X145364321Y-117610611D01*
X144620287Y-118389332D01*
X143467419Y-119377633D01*
X142222092Y-120246542D01*
X140896618Y-120987475D01*
X139504117Y-121593094D01*
X138058344Y-122057417D01*
X136573605Y-122375851D01*
X135064584Y-122545246D01*
X133546200Y-122563928D01*
X132033449Y-122431711D01*
X130541340Y-122149907D01*
X129084576Y-121721294D01*
X127677595Y-121150119D01*
X126334291Y-120442022D01*
X125067963Y-119604015D01*
X123891118Y-118644372D01*
X123163453Y-117919366D01*
X127994460Y-117919366D01*
X127994460Y-118331114D01*
X128152029Y-118711520D01*
X128443180Y-119002671D01*
X128823586Y-119160240D01*
X129235334Y-119160240D01*
X129615740Y-119002671D01*
X129733171Y-118885240D01*
X131197409Y-118885240D01*
X131128909Y-118953740D01*
X130971340Y-119334146D01*
X130971340Y-119745894D01*
X131128909Y-120126300D01*
X131420060Y-120417451D01*
X131800466Y-120575020D01*
X131966538Y-120575020D01*
X132274531Y-120883013D01*
X132316931Y-120946469D01*
X132568323Y-121114444D01*
X132790008Y-121158540D01*
X132790012Y-121158540D01*
X132864860Y-121173428D01*
X132939708Y-121158540D01*
X136565509Y-121158540D01*
X136682940Y-121275971D01*
X137063346Y-121433540D01*
X137475094Y-121433540D01*
X137855500Y-121275971D01*
X137972931Y-121158540D01*
X139759773Y-121158540D01*
X139834620Y-121173428D01*
X139909467Y-121158540D01*
X139909472Y-121158540D01*
X140131157Y-121114444D01*
X140382549Y-120946469D01*
X140424951Y-120883010D01*
X143842073Y-117465889D01*
X143905529Y-117423489D01*
X144073504Y-117172097D01*
X144117600Y-116950412D01*
X144117600Y-116950408D01*
X144132488Y-116875561D01*
X144129197Y-116859014D01*
X144235031Y-116753180D01*
X144392600Y-116372774D01*
X144392600Y-115961026D01*
X144235031Y-115580620D01*
X144117600Y-115463189D01*
X144117600Y-110950928D01*
X144132488Y-110876080D01*
X144117600Y-110801232D01*
X144117600Y-110801228D01*
X144073504Y-110579543D01*
X144073504Y-110579542D01*
X143947929Y-110391607D01*
X143905529Y-110328151D01*
X143842073Y-110285751D01*
X143281940Y-109725619D01*
X143281940Y-108993781D01*
X143286730Y-108988991D01*
X143553051Y-109099305D01*
X143964799Y-109099305D01*
X144345205Y-108941736D01*
X144636356Y-108650585D01*
X144793925Y-108270179D01*
X144793925Y-107858431D01*
X144636356Y-107478025D01*
X144345205Y-107186874D01*
X143964799Y-107029305D01*
X143553051Y-107029305D01*
X143172645Y-107186874D01*
X143053588Y-107305931D01*
X142888220Y-107338825D01*
X142840077Y-107348401D01*
X142653033Y-107473381D01*
X142588686Y-107516376D01*
X142546286Y-107579832D01*
X142037468Y-108088651D01*
X141974012Y-108131051D01*
X141931612Y-108194507D01*
X141931611Y-108194508D01*
X141806037Y-108382443D01*
X141747052Y-108678980D01*
X141761941Y-108753831D01*
X141761940Y-109684328D01*
X141528410Y-109781059D01*
X141237259Y-110072210D01*
X141079690Y-110452616D01*
X141079690Y-110864364D01*
X141237259Y-111244770D01*
X141354690Y-111362201D01*
X141354691Y-116389438D01*
X141234719Y-116509410D01*
X141077150Y-116889816D01*
X141077150Y-117301564D01*
X141106868Y-117373310D01*
X139659519Y-118820660D01*
X136972171Y-118820660D01*
X136854740Y-118703229D01*
X136474334Y-118545660D01*
X136062586Y-118545660D01*
X135682180Y-118703229D01*
X135564749Y-118820660D01*
X133545422Y-118820660D01*
X132365531Y-117640770D01*
X132323129Y-117577311D01*
X132071737Y-117409336D01*
X131850052Y-117365240D01*
X131850047Y-117365240D01*
X131775200Y-117350352D01*
X131700353Y-117365240D01*
X129733171Y-117365240D01*
X129615740Y-117247809D01*
X129235334Y-117090240D01*
X128823586Y-117090240D01*
X128443180Y-117247809D01*
X128152029Y-117538960D01*
X127994460Y-117919366D01*
X123163453Y-117919366D01*
X122880484Y-117637432D01*
X122875244Y-111434368D01*
X122888440Y-111368027D01*
X122888440Y-107595213D01*
X122871930Y-107512214D01*
X122865071Y-99393222D01*
X122866593Y-99393948D01*
X123080780Y-99272045D01*
X123080780Y-98178620D01*
X123334780Y-98178620D01*
X123334780Y-99272045D01*
X123548967Y-99393948D01*
X124036682Y-99161203D01*
X124398205Y-98759534D01*
X124550098Y-98392805D01*
X124427436Y-98178620D01*
X123334780Y-98178620D01*
X123080780Y-98178620D01*
X123060780Y-98178620D01*
X123060780Y-97924620D01*
X123080780Y-97924620D01*
X123080780Y-97904620D01*
X123334780Y-97904620D01*
X123334780Y-97924620D01*
X124427436Y-97924620D01*
X124550098Y-97710435D01*
X124398205Y-97343706D01*
X124036682Y-96942037D01*
X123694054Y-96778530D01*
X126611892Y-96776379D01*
X126611891Y-113230465D01*
X126599058Y-113294981D01*
X126654162Y-113572009D01*
X126811086Y-113806862D01*
X127045939Y-113963786D01*
X127253041Y-114004981D01*
X139970821Y-114004981D01*
X140040747Y-114018890D01*
X140110672Y-114004981D01*
X140110673Y-114004981D01*
X140317775Y-113963786D01*
X140552628Y-113806862D01*
X140709552Y-113572009D01*
X140764656Y-113294981D01*
X140750747Y-113225055D01*
X140750747Y-106769683D01*
X141276144Y-107077264D01*
X141517007Y-107141293D01*
X141848840Y-107028345D01*
X141848840Y-104183180D01*
X142102840Y-104183180D01*
X142102840Y-107028345D01*
X142434673Y-107141293D01*
X142675536Y-107077264D01*
X143395710Y-106655656D01*
X143899722Y-105990542D01*
X144110840Y-105183180D01*
X144110840Y-104183180D01*
X142102840Y-104183180D01*
X141848840Y-104183180D01*
X141828840Y-104183180D01*
X141828840Y-103929180D01*
X141848840Y-103929180D01*
X141848840Y-101084015D01*
X142102840Y-101084015D01*
X142102840Y-103929180D01*
X144110840Y-103929180D01*
X144110840Y-102929180D01*
X143899722Y-102121818D01*
X143395710Y-101456704D01*
X142675536Y-101035096D01*
X142434673Y-100971067D01*
X142102840Y-101084015D01*
X141848840Y-101084015D01*
X141517007Y-100971067D01*
X141276144Y-101035096D01*
X140750747Y-101342677D01*
X140750747Y-96765955D01*
X145129234Y-96762727D01*
X145349112Y-96981801D01*
X145349112Y-96981801D01*
G37*
X145349112Y-96981801D02*
X145364321Y-117610611D01*
X144620287Y-118389332D01*
X143467419Y-119377633D01*
X142222092Y-120246542D01*
X140896618Y-120987475D01*
X139504117Y-121593094D01*
X138058344Y-122057417D01*
X136573605Y-122375851D01*
X135064584Y-122545246D01*
X133546200Y-122563928D01*
X132033449Y-122431711D01*
X130541340Y-122149907D01*
X129084576Y-121721294D01*
X127677595Y-121150119D01*
X126334291Y-120442022D01*
X125067963Y-119604015D01*
X123891118Y-118644372D01*
X123163453Y-117919366D01*
X127994460Y-117919366D01*
X127994460Y-118331114D01*
X128152029Y-118711520D01*
X128443180Y-119002671D01*
X128823586Y-119160240D01*
X129235334Y-119160240D01*
X129615740Y-119002671D01*
X129733171Y-118885240D01*
X131197409Y-118885240D01*
X131128909Y-118953740D01*
X130971340Y-119334146D01*
X130971340Y-119745894D01*
X131128909Y-120126300D01*
X131420060Y-120417451D01*
X131800466Y-120575020D01*
X131966538Y-120575020D01*
X132274531Y-120883013D01*
X132316931Y-120946469D01*
X132568323Y-121114444D01*
X132790008Y-121158540D01*
X132790012Y-121158540D01*
X132864860Y-121173428D01*
X132939708Y-121158540D01*
X136565509Y-121158540D01*
X136682940Y-121275971D01*
X137063346Y-121433540D01*
X137475094Y-121433540D01*
X137855500Y-121275971D01*
X137972931Y-121158540D01*
X139759773Y-121158540D01*
X139834620Y-121173428D01*
X139909467Y-121158540D01*
X139909472Y-121158540D01*
X140131157Y-121114444D01*
X140382549Y-120946469D01*
X140424951Y-120883010D01*
X143842073Y-117465889D01*
X143905529Y-117423489D01*
X144073504Y-117172097D01*
X144117600Y-116950412D01*
X144117600Y-116950408D01*
X144132488Y-116875561D01*
X144129197Y-116859014D01*
X144235031Y-116753180D01*
X144392600Y-116372774D01*
X144392600Y-115961026D01*
X144235031Y-115580620D01*
X144117600Y-115463189D01*
X144117600Y-110950928D01*
X144132488Y-110876080D01*
X144117600Y-110801232D01*
X144117600Y-110801228D01*
X144073504Y-110579543D01*
X144073504Y-110579542D01*
X143947929Y-110391607D01*
X143905529Y-110328151D01*
X143842073Y-110285751D01*
X143281940Y-109725619D01*
X143281940Y-108993781D01*
X143286730Y-108988991D01*
X143553051Y-109099305D01*
X143964799Y-109099305D01*
X144345205Y-108941736D01*
X144636356Y-108650585D01*
X144793925Y-108270179D01*
X144793925Y-107858431D01*
X144636356Y-107478025D01*
X144345205Y-107186874D01*
X143964799Y-107029305D01*
X143553051Y-107029305D01*
X143172645Y-107186874D01*
X143053588Y-107305931D01*
X142888220Y-107338825D01*
X142840077Y-107348401D01*
X142653033Y-107473381D01*
X142588686Y-107516376D01*
X142546286Y-107579832D01*
X142037468Y-108088651D01*
X141974012Y-108131051D01*
X141931612Y-108194507D01*
X141931611Y-108194508D01*
X141806037Y-108382443D01*
X141747052Y-108678980D01*
X141761941Y-108753831D01*
X141761940Y-109684328D01*
X141528410Y-109781059D01*
X141237259Y-110072210D01*
X141079690Y-110452616D01*
X141079690Y-110864364D01*
X141237259Y-111244770D01*
X141354690Y-111362201D01*
X141354691Y-116389438D01*
X141234719Y-116509410D01*
X141077150Y-116889816D01*
X141077150Y-117301564D01*
X141106868Y-117373310D01*
X139659519Y-118820660D01*
X136972171Y-118820660D01*
X136854740Y-118703229D01*
X136474334Y-118545660D01*
X136062586Y-118545660D01*
X135682180Y-118703229D01*
X135564749Y-118820660D01*
X133545422Y-118820660D01*
X132365531Y-117640770D01*
X132323129Y-117577311D01*
X132071737Y-117409336D01*
X131850052Y-117365240D01*
X131850047Y-117365240D01*
X131775200Y-117350352D01*
X131700353Y-117365240D01*
X129733171Y-117365240D01*
X129615740Y-117247809D01*
X129235334Y-117090240D01*
X128823586Y-117090240D01*
X128443180Y-117247809D01*
X128152029Y-117538960D01*
X127994460Y-117919366D01*
X123163453Y-117919366D01*
X122880484Y-117637432D01*
X122875244Y-111434368D01*
X122888440Y-111368027D01*
X122888440Y-107595213D01*
X122871930Y-107512214D01*
X122865071Y-99393222D01*
X122866593Y-99393948D01*
X123080780Y-99272045D01*
X123080780Y-98178620D01*
X123334780Y-98178620D01*
X123334780Y-99272045D01*
X123548967Y-99393948D01*
X124036682Y-99161203D01*
X124398205Y-98759534D01*
X124550098Y-98392805D01*
X124427436Y-98178620D01*
X123334780Y-98178620D01*
X123080780Y-98178620D01*
X123060780Y-98178620D01*
X123060780Y-97924620D01*
X123080780Y-97924620D01*
X123080780Y-97904620D01*
X123334780Y-97904620D01*
X123334780Y-97924620D01*
X124427436Y-97924620D01*
X124550098Y-97710435D01*
X124398205Y-97343706D01*
X124036682Y-96942037D01*
X123694054Y-96778530D01*
X126611892Y-96776379D01*
X126611891Y-113230465D01*
X126599058Y-113294981D01*
X126654162Y-113572009D01*
X126811086Y-113806862D01*
X127045939Y-113963786D01*
X127253041Y-114004981D01*
X139970821Y-114004981D01*
X140040747Y-114018890D01*
X140110672Y-114004981D01*
X140110673Y-114004981D01*
X140317775Y-113963786D01*
X140552628Y-113806862D01*
X140709552Y-113572009D01*
X140764656Y-113294981D01*
X140750747Y-113225055D01*
X140750747Y-106769683D01*
X141276144Y-107077264D01*
X141517007Y-107141293D01*
X141848840Y-107028345D01*
X141848840Y-104183180D01*
X142102840Y-104183180D01*
X142102840Y-107028345D01*
X142434673Y-107141293D01*
X142675536Y-107077264D01*
X143395710Y-106655656D01*
X143899722Y-105990542D01*
X144110840Y-105183180D01*
X144110840Y-104183180D01*
X142102840Y-104183180D01*
X141848840Y-104183180D01*
X141828840Y-104183180D01*
X141828840Y-103929180D01*
X141848840Y-103929180D01*
X141848840Y-101084015D01*
X142102840Y-101084015D01*
X142102840Y-103929180D01*
X144110840Y-103929180D01*
X144110840Y-102929180D01*
X143899722Y-102121818D01*
X143395710Y-101456704D01*
X142675536Y-101035096D01*
X142434673Y-100971067D01*
X142102840Y-101084015D01*
X141848840Y-101084015D01*
X141517007Y-100971067D01*
X141276144Y-101035096D01*
X140750747Y-101342677D01*
X140750747Y-96765955D01*
X145129234Y-96762727D01*
X145349112Y-96981801D01*
G04 #@! TD*
M02*
