G04 #@! TF.GenerationSoftware,KiCad,Pcbnew,(5.0.2)-1*
G04 #@! TF.CreationDate,2019-07-28T22:47:38+08:00*
G04 #@! TF.ProjectId,I2CS,49324353-2e6b-4696-9361-645f70636258,rev?*
G04 #@! TF.SameCoordinates,Original*
G04 #@! TF.FileFunction,Legend,Top*
G04 #@! TF.FilePolarity,Positive*
%FSLAX46Y46*%
G04 Gerber Fmt 4.6, Leading zero omitted, Abs format (unit mm)*
G04 Created by KiCad (PCBNEW (5.0.2)-1) date 2019-07-28 22:47:38*
%MOMM*%
%LPD*%
G01*
G04 APERTURE LIST*
%ADD10C,0.500000*%
%ADD11C,0.200000*%
%ADD12C,0.120000*%
%ADD13C,0.400000*%
%ADD14C,0.100000*%
%ADD15C,0.254000*%
%ADD16C,0.010000*%
G04 APERTURE END LIST*
D10*
X132709970Y-119921020D02*
X132710070Y-119921020D01*
X127937310Y-117172740D02*
X127937410Y-117172740D01*
D11*
G04 #@! TO.C,C2*
X133160820Y-114832020D02*
G75*
G02X133560820Y-114432020I400000J0D01*
G01*
X133560820Y-116012020D02*
G75*
G02X133160820Y-115612020I0J400000D01*
G01*
X136230820Y-115612020D02*
G75*
G02X135830820Y-116012020I-400000J0D01*
G01*
X135830820Y-114432020D02*
G75*
G02X136230820Y-114832020I0J-400000D01*
G01*
X133560820Y-116012020D02*
X134295820Y-116012020D01*
X135095820Y-116012020D02*
X135830820Y-116012020D01*
X135095820Y-114432020D02*
X135830820Y-114432020D01*
X133160820Y-115612020D02*
X133160820Y-114832020D01*
X136230820Y-115612020D02*
X136230820Y-114832020D01*
X133560820Y-114432020D02*
X134295820Y-114432020D01*
G04 #@! TO.C,R1*
X136778540Y-114454880D02*
X137913540Y-114454880D01*
X139848540Y-116034880D02*
X139848540Y-114454880D01*
X136778540Y-116034880D02*
X136778540Y-114454880D01*
X138713540Y-114454880D02*
X139848540Y-114454880D01*
X136778540Y-116034880D02*
X137913540Y-116034880D01*
X138713540Y-116034880D02*
X139848540Y-116034880D01*
D12*
G04 #@! TO.C,U2*
X126720343Y-120657348D02*
X129439266Y-121925203D01*
X129440635Y-118372964D02*
X130800097Y-119006892D01*
D13*
G04 #@! TO.C,U3*
X141057615Y-117681296D02*
X141057916Y-117682586D01*
D14*
X142206486Y-120293793D02*
X142074044Y-120364213D01*
X142136065Y-120161351D02*
X142206486Y-120293793D01*
X139822527Y-121561366D02*
X139752107Y-121428924D01*
X139822527Y-121561366D02*
X139954969Y-121490945D01*
X138554954Y-119177407D02*
X138687396Y-119106987D01*
X138546125Y-119182102D02*
X138616545Y-119314544D01*
D15*
G04 #@! TO.C,C1*
X144364439Y-100158240D02*
X144814440Y-99722240D01*
X147664440Y-100158240D02*
X147214441Y-99722240D01*
X147214441Y-99722240D02*
X144814440Y-99722240D01*
X147664440Y-102085240D02*
X147664440Y-100158240D01*
X147664441Y-105612240D02*
X144364440Y-105612240D01*
X144364440Y-102085240D02*
X144364439Y-100158240D01*
X147664441Y-105612240D02*
X147664440Y-103685240D01*
X144364440Y-105612240D02*
X144364440Y-103685240D01*
X147664440Y-100158240D02*
X144364439Y-100158240D01*
D11*
G04 #@! TO.C,R2*
X129435400Y-114434560D02*
X130570400Y-114434560D01*
X132505400Y-116014560D02*
X132505400Y-114434560D01*
X129435400Y-116014560D02*
X129435400Y-114434560D01*
X131370400Y-114434560D02*
X132505400Y-114434560D01*
X129435400Y-116014560D02*
X130570400Y-116014560D01*
X131370400Y-116014560D02*
X132505400Y-116014560D01*
G04 #@! TO.C,C3*
X129809240Y-116265900D02*
X130544240Y-116265900D01*
X132479240Y-117445900D02*
X132479240Y-116665900D01*
X129409240Y-117445900D02*
X129409240Y-116665900D01*
X131344240Y-116265900D02*
X132079240Y-116265900D01*
X131344240Y-117845900D02*
X132079240Y-117845900D01*
X129809240Y-117845900D02*
X130544240Y-117845900D01*
X132079240Y-116265900D02*
G75*
G02X132479240Y-116665900I0J-400000D01*
G01*
X132479240Y-117445900D02*
G75*
G02X132079240Y-117845900I-400000J0D01*
G01*
X129809240Y-117845900D02*
G75*
G02X129409240Y-117445900I0J400000D01*
G01*
X129409240Y-116665900D02*
G75*
G02X129809240Y-116265900I400000J0D01*
G01*
G04 #@! TO.C,C4*
X137165840Y-116263360D02*
X137900840Y-116263360D01*
X139835840Y-117443360D02*
X139835840Y-116663360D01*
X136765840Y-117443360D02*
X136765840Y-116663360D01*
X138700840Y-116263360D02*
X139435840Y-116263360D01*
X138700840Y-117843360D02*
X139435840Y-117843360D01*
X137165840Y-117843360D02*
X137900840Y-117843360D01*
X139435840Y-116263360D02*
G75*
G02X139835840Y-116663360I0J-400000D01*
G01*
X139835840Y-117443360D02*
G75*
G02X139435840Y-117843360I-400000J0D01*
G01*
X137165840Y-117843360D02*
G75*
G02X136765840Y-117443360I0J400000D01*
G01*
X136765840Y-116663360D02*
G75*
G02X137165840Y-116263360I400000J0D01*
G01*
G04 #@! TO.C,R3*
X136225740Y-117845900D02*
X135090740Y-117845900D01*
X133155740Y-116265900D02*
X133155740Y-117845900D01*
X136225740Y-116265900D02*
X136225740Y-117845900D01*
X134290740Y-117845900D02*
X133155740Y-117845900D01*
X136225740Y-116265900D02*
X135090740Y-116265900D01*
X134290740Y-116265900D02*
X133155740Y-116265900D01*
D16*
G04 #@! TO.C,G\002A\002A\002A*
G36*
X126325483Y-116622384D02*
X126311364Y-116624100D01*
X126254011Y-116579150D01*
X126252295Y-116565030D01*
X126297245Y-116507677D01*
X126311364Y-116505961D01*
X126368718Y-116550911D01*
X126370434Y-116565030D01*
X126325483Y-116622384D01*
X126325483Y-116622384D01*
G37*
X126325483Y-116622384D02*
X126311364Y-116624100D01*
X126254011Y-116579150D01*
X126252295Y-116565030D01*
X126297245Y-116507677D01*
X126311364Y-116505961D01*
X126368718Y-116550911D01*
X126370434Y-116565030D01*
X126325483Y-116622384D01*
G36*
X126171074Y-114209624D02*
X126145113Y-114354454D01*
X126134157Y-114445417D01*
X126134155Y-114445903D01*
X126082205Y-114480072D01*
X125954472Y-114497145D01*
X125927411Y-114497589D01*
X125795040Y-114490436D01*
X125736213Y-114446269D01*
X125721129Y-114331030D01*
X125720667Y-114261310D01*
X125720667Y-114025030D01*
X125964329Y-114025030D01*
X126117653Y-114029684D01*
X126181269Y-114060567D01*
X126183606Y-114143061D01*
X126171074Y-114209624D01*
X126171074Y-114209624D01*
G37*
X126171074Y-114209624D02*
X126145113Y-114354454D01*
X126134157Y-114445417D01*
X126134155Y-114445903D01*
X126082205Y-114480072D01*
X125954472Y-114497145D01*
X125927411Y-114497589D01*
X125795040Y-114490436D01*
X125736213Y-114446269D01*
X125721129Y-114331030D01*
X125720667Y-114261310D01*
X125720667Y-114025030D01*
X125964329Y-114025030D01*
X126117653Y-114029684D01*
X126181269Y-114060567D01*
X126183606Y-114143061D01*
X126171074Y-114209624D01*
G36*
X126221485Y-111160778D02*
X126163690Y-111189682D01*
X126085082Y-111221578D01*
X126075085Y-111248751D01*
X126032034Y-111301231D01*
X125933260Y-111297184D01*
X125824337Y-111240883D01*
X125805052Y-111223436D01*
X125729806Y-111078370D01*
X125752051Y-110924105D01*
X125809025Y-110850030D01*
X125918737Y-110789652D01*
X126022712Y-110781242D01*
X126074554Y-110827375D01*
X126075085Y-110835263D01*
X126122929Y-110887669D01*
X126163690Y-110894333D01*
X126234953Y-110945682D01*
X126252295Y-111042007D01*
X126221485Y-111160778D01*
X126221485Y-111160778D01*
G37*
X126221485Y-111160778D02*
X126163690Y-111189682D01*
X126085082Y-111221578D01*
X126075085Y-111248751D01*
X126032034Y-111301231D01*
X125933260Y-111297184D01*
X125824337Y-111240883D01*
X125805052Y-111223436D01*
X125729806Y-111078370D01*
X125752051Y-110924105D01*
X125809025Y-110850030D01*
X125918737Y-110789652D01*
X126022712Y-110781242D01*
X126074554Y-110827375D01*
X126075085Y-110835263D01*
X126122929Y-110887669D01*
X126163690Y-110894333D01*
X126234953Y-110945682D01*
X126252295Y-111042007D01*
X126221485Y-111160778D01*
G36*
X126435280Y-113123207D02*
X126356879Y-113179694D01*
X126225185Y-113238458D01*
X126356879Y-113308939D01*
X126441401Y-113393426D01*
X126486010Y-113509446D01*
X126483948Y-113614968D01*
X126428455Y-113667957D01*
X126414736Y-113668768D01*
X126323132Y-113638481D01*
X126177010Y-113564065D01*
X126104620Y-113521397D01*
X125916397Y-113431064D01*
X125729204Y-113379879D01*
X125676364Y-113375566D01*
X125542211Y-113361421D01*
X125490305Y-113303384D01*
X125484388Y-113239450D01*
X125499080Y-113149137D01*
X125566139Y-113119501D01*
X125685690Y-113127138D01*
X125879488Y-113114208D01*
X126081746Y-113017750D01*
X126112890Y-112997137D01*
X126303433Y-112882715D01*
X126421890Y-112852012D01*
X126479099Y-112904599D01*
X126488574Y-112982283D01*
X126435280Y-113123207D01*
X126435280Y-113123207D01*
G37*
X126435280Y-113123207D02*
X126356879Y-113179694D01*
X126225185Y-113238458D01*
X126356879Y-113308939D01*
X126441401Y-113393426D01*
X126486010Y-113509446D01*
X126483948Y-113614968D01*
X126428455Y-113667957D01*
X126414736Y-113668768D01*
X126323132Y-113638481D01*
X126177010Y-113564065D01*
X126104620Y-113521397D01*
X125916397Y-113431064D01*
X125729204Y-113379879D01*
X125676364Y-113375566D01*
X125542211Y-113361421D01*
X125490305Y-113303384D01*
X125484388Y-113239450D01*
X125499080Y-113149137D01*
X125566139Y-113119501D01*
X125685690Y-113127138D01*
X125879488Y-113114208D01*
X126081746Y-113017750D01*
X126112890Y-112997137D01*
X126303433Y-112882715D01*
X126421890Y-112852012D01*
X126479099Y-112904599D01*
X126488574Y-112982283D01*
X126435280Y-113123207D01*
G36*
X126483964Y-108750727D02*
X126454540Y-108794371D01*
X126376914Y-108817026D01*
X126227695Y-108825573D01*
X125986481Y-108826891D01*
X125743344Y-108825535D01*
X125594956Y-108816881D01*
X125517927Y-108794050D01*
X125488868Y-108750162D01*
X125484388Y-108679217D01*
X125488998Y-108607706D01*
X125518421Y-108564062D01*
X125596047Y-108541407D01*
X125745266Y-108532860D01*
X125986481Y-108531542D01*
X126229617Y-108532898D01*
X126378005Y-108541552D01*
X126455034Y-108564383D01*
X126484093Y-108608271D01*
X126488574Y-108679217D01*
X126483964Y-108750727D01*
X126483964Y-108750727D01*
G37*
X126483964Y-108750727D02*
X126454540Y-108794371D01*
X126376914Y-108817026D01*
X126227695Y-108825573D01*
X125986481Y-108826891D01*
X125743344Y-108825535D01*
X125594956Y-108816881D01*
X125517927Y-108794050D01*
X125488868Y-108750162D01*
X125484388Y-108679217D01*
X125488998Y-108607706D01*
X125518421Y-108564062D01*
X125596047Y-108541407D01*
X125745266Y-108532860D01*
X125986481Y-108531542D01*
X126229617Y-108532898D01*
X126378005Y-108541552D01*
X126455034Y-108564383D01*
X126484093Y-108608271D01*
X126488574Y-108679217D01*
X126483964Y-108750727D01*
G36*
X126477825Y-112706355D02*
X126427585Y-112753495D01*
X126310857Y-112783073D01*
X126125490Y-112805685D01*
X125844648Y-112833355D01*
X125660704Y-112843136D01*
X125553186Y-112830582D01*
X125501620Y-112791245D01*
X125485531Y-112720677D01*
X125484388Y-112666426D01*
X125502145Y-112537710D01*
X125570454Y-112491710D01*
X125609071Y-112489217D01*
X125733755Y-112489217D01*
X125607481Y-112385844D01*
X125508678Y-112247100D01*
X125450820Y-112017286D01*
X125445034Y-111972356D01*
X125408862Y-111662240D01*
X125956946Y-111662240D01*
X125956946Y-111957589D01*
X125784864Y-111980495D01*
X125718489Y-112045952D01*
X125761425Y-112149066D01*
X125791550Y-112182054D01*
X125925648Y-112248807D01*
X126060987Y-112217280D01*
X126132077Y-112138681D01*
X126181957Y-112028995D01*
X126163630Y-111975813D01*
X126057470Y-111958841D01*
X125956946Y-111957589D01*
X125956946Y-111662240D01*
X126480270Y-111662240D01*
X126466339Y-111965492D01*
X126442451Y-112174858D01*
X126384875Y-112308439D01*
X126316272Y-112378981D01*
X126180137Y-112489217D01*
X126334355Y-112489217D01*
X126450690Y-112511907D01*
X126487736Y-112600116D01*
X126488574Y-112628476D01*
X126477825Y-112706355D01*
X126477825Y-112706355D01*
G37*
X126477825Y-112706355D02*
X126427585Y-112753495D01*
X126310857Y-112783073D01*
X126125490Y-112805685D01*
X125844648Y-112833355D01*
X125660704Y-112843136D01*
X125553186Y-112830582D01*
X125501620Y-112791245D01*
X125485531Y-112720677D01*
X125484388Y-112666426D01*
X125502145Y-112537710D01*
X125570454Y-112491710D01*
X125609071Y-112489217D01*
X125733755Y-112489217D01*
X125607481Y-112385844D01*
X125508678Y-112247100D01*
X125450820Y-112017286D01*
X125445034Y-111972356D01*
X125408862Y-111662240D01*
X125956946Y-111662240D01*
X125956946Y-111957589D01*
X125784864Y-111980495D01*
X125718489Y-112045952D01*
X125761425Y-112149066D01*
X125791550Y-112182054D01*
X125925648Y-112248807D01*
X126060987Y-112217280D01*
X126132077Y-112138681D01*
X126181957Y-112028995D01*
X126163630Y-111975813D01*
X126057470Y-111958841D01*
X125956946Y-111957589D01*
X125956946Y-111662240D01*
X126480270Y-111662240D01*
X126466339Y-111965492D01*
X126442451Y-112174858D01*
X126384875Y-112308439D01*
X126316272Y-112378981D01*
X126180137Y-112489217D01*
X126334355Y-112489217D01*
X126450690Y-112511907D01*
X126487736Y-112600116D01*
X126488574Y-112628476D01*
X126477825Y-112706355D01*
G36*
X126483049Y-110285457D02*
X126460160Y-110383664D01*
X126410437Y-110419030D01*
X126376754Y-110421775D01*
X126265105Y-110376761D01*
X126227812Y-110325037D01*
X126184554Y-110269928D01*
X126091593Y-110248861D01*
X125919101Y-110256603D01*
X125866879Y-110261719D01*
X125673400Y-110275447D01*
X125562625Y-110261373D01*
X125501019Y-110212786D01*
X125484192Y-110185131D01*
X125438095Y-110084614D01*
X125451790Y-110031848D01*
X125545338Y-110011515D01*
X125715835Y-110008286D01*
X125906399Y-110001258D01*
X126056964Y-109983449D01*
X126099789Y-109972432D01*
X126187979Y-109916341D01*
X126169577Y-109867151D01*
X126056048Y-109836208D01*
X125956946Y-109831077D01*
X125717730Y-109789308D01*
X125562051Y-109664002D01*
X125489909Y-109455159D01*
X125484388Y-109358519D01*
X125523845Y-109121475D01*
X125645089Y-108968104D01*
X125852432Y-108894315D01*
X125982193Y-108885961D01*
X126082133Y-108894298D01*
X126082133Y-109134631D01*
X125924132Y-109143884D01*
X125834923Y-109183388D01*
X125737349Y-109291272D01*
X125733831Y-109431079D01*
X125791550Y-109523914D01*
X125918871Y-109585304D01*
X126053456Y-109560063D01*
X126162528Y-109472368D01*
X126213310Y-109346393D01*
X126188337Y-109231247D01*
X126082133Y-109134631D01*
X126082133Y-108894298D01*
X126169299Y-108901570D01*
X126291984Y-108962233D01*
X126366147Y-109041601D01*
X126471758Y-109258254D01*
X126469274Y-109484161D01*
X126396619Y-109640724D01*
X126337687Y-109735541D01*
X126351557Y-109768680D01*
X126396619Y-109772007D01*
X126451562Y-109798315D01*
X126479968Y-109893039D01*
X126488543Y-110079876D01*
X126488574Y-110096891D01*
X126483049Y-110285457D01*
X126483049Y-110285457D01*
G37*
X126483049Y-110285457D02*
X126460160Y-110383664D01*
X126410437Y-110419030D01*
X126376754Y-110421775D01*
X126265105Y-110376761D01*
X126227812Y-110325037D01*
X126184554Y-110269928D01*
X126091593Y-110248861D01*
X125919101Y-110256603D01*
X125866879Y-110261719D01*
X125673400Y-110275447D01*
X125562625Y-110261373D01*
X125501019Y-110212786D01*
X125484192Y-110185131D01*
X125438095Y-110084614D01*
X125451790Y-110031848D01*
X125545338Y-110011515D01*
X125715835Y-110008286D01*
X125906399Y-110001258D01*
X126056964Y-109983449D01*
X126099789Y-109972432D01*
X126187979Y-109916341D01*
X126169577Y-109867151D01*
X126056048Y-109836208D01*
X125956946Y-109831077D01*
X125717730Y-109789308D01*
X125562051Y-109664002D01*
X125489909Y-109455159D01*
X125484388Y-109358519D01*
X125523845Y-109121475D01*
X125645089Y-108968104D01*
X125852432Y-108894315D01*
X125982193Y-108885961D01*
X126082133Y-108894298D01*
X126082133Y-109134631D01*
X125924132Y-109143884D01*
X125834923Y-109183388D01*
X125737349Y-109291272D01*
X125733831Y-109431079D01*
X125791550Y-109523914D01*
X125918871Y-109585304D01*
X126053456Y-109560063D01*
X126162528Y-109472368D01*
X126213310Y-109346393D01*
X126188337Y-109231247D01*
X126082133Y-109134631D01*
X126082133Y-108894298D01*
X126169299Y-108901570D01*
X126291984Y-108962233D01*
X126366147Y-109041601D01*
X126471758Y-109258254D01*
X126469274Y-109484161D01*
X126396619Y-109640724D01*
X126337687Y-109735541D01*
X126351557Y-109768680D01*
X126396619Y-109772007D01*
X126451562Y-109798315D01*
X126479968Y-109893039D01*
X126488543Y-110079876D01*
X126488574Y-110096891D01*
X126483049Y-110285457D01*
G36*
X126943186Y-116750803D02*
X126899593Y-116772558D01*
X126812147Y-116833588D01*
X126817805Y-116933149D01*
X126830472Y-117020443D01*
X126773699Y-117023396D01*
X126761204Y-117018843D01*
X126680061Y-117022266D01*
X126665783Y-117068977D01*
X126633295Y-117146388D01*
X126606713Y-117155728D01*
X126549320Y-117114838D01*
X126547643Y-117102188D01*
X126501012Y-117070685D01*
X126437650Y-117077413D01*
X126334321Y-117056076D01*
X126271795Y-116966162D01*
X126283926Y-116857025D01*
X126285124Y-116855049D01*
X126256496Y-116820020D01*
X126143497Y-116801970D01*
X126111592Y-116801310D01*
X125963476Y-116786238D01*
X125873821Y-116749360D01*
X125869089Y-116743449D01*
X125801183Y-116721205D01*
X125706426Y-116766313D01*
X125626904Y-116850187D01*
X125602527Y-116924503D01*
X125647359Y-117034505D01*
X125752172Y-117153759D01*
X125872444Y-117236419D01*
X125917967Y-117249309D01*
X126042086Y-117262694D01*
X126060318Y-117264871D01*
X126126245Y-117312967D01*
X126123810Y-117393475D01*
X126060495Y-117448228D01*
X126036359Y-117451077D01*
X125911203Y-117410078D01*
X125755594Y-117309190D01*
X125611869Y-117181575D01*
X125522363Y-117060397D01*
X125515720Y-117043251D01*
X125481047Y-116971262D01*
X125418887Y-116967061D01*
X125306802Y-117017095D01*
X125125094Y-117086675D01*
X124921048Y-117137398D01*
X124910277Y-117139185D01*
X124743030Y-117190154D01*
X124621569Y-117269149D01*
X124609759Y-117283441D01*
X124497731Y-117379872D01*
X124375105Y-117361208D01*
X124272352Y-117272646D01*
X124164332Y-117153285D01*
X124008918Y-117302181D01*
X123826387Y-117425711D01*
X123646502Y-117433683D01*
X123454447Y-117328650D01*
X123330200Y-117180181D01*
X123298806Y-117007612D01*
X123324496Y-116766589D01*
X123393065Y-116585915D01*
X123491766Y-116481005D01*
X123607849Y-116467269D01*
X123697816Y-116525236D01*
X123758435Y-116615073D01*
X123743523Y-116722758D01*
X123720559Y-116777226D01*
X123671819Y-116913964D01*
X123691739Y-116956663D01*
X123778125Y-116905815D01*
X123928786Y-116761916D01*
X123966677Y-116721757D01*
X124111400Y-116578474D01*
X124233417Y-116479039D01*
X124279026Y-116456733D01*
X124279026Y-116936972D01*
X124243922Y-116978519D01*
X124190795Y-117072772D01*
X124210804Y-117085329D01*
X124243922Y-117067124D01*
X124300084Y-116980857D01*
X124302088Y-116960265D01*
X124279026Y-116936972D01*
X124279026Y-116456733D01*
X124299147Y-116446891D01*
X124338134Y-116421673D01*
X124300480Y-116333273D01*
X124279060Y-116299477D01*
X124212087Y-116112295D01*
X124219377Y-116005016D01*
X124226499Y-115891337D01*
X124154762Y-115822490D01*
X124091120Y-115795174D01*
X123922602Y-115763772D01*
X123697534Y-115763373D01*
X123612381Y-115771557D01*
X123298806Y-115810736D01*
X123298806Y-115600672D01*
X123310029Y-115455583D01*
X123337593Y-115372427D01*
X123343108Y-115367978D01*
X123417148Y-115357370D01*
X123582813Y-115346345D01*
X123813604Y-115336378D01*
X124018776Y-115330358D01*
X124650141Y-115315367D01*
X124651186Y-115790895D01*
X124644711Y-116059251D01*
X124621298Y-116233830D01*
X124577090Y-116338265D01*
X124558321Y-116360333D01*
X124499761Y-116436662D01*
X124530233Y-116497045D01*
X124590446Y-116542521D01*
X124685131Y-116656020D01*
X124716286Y-116837229D01*
X124716481Y-116858199D01*
X124724156Y-117004057D01*
X124758717Y-117060025D01*
X124837461Y-117053961D01*
X124837961Y-117053830D01*
X124924350Y-117000621D01*
X124916518Y-116926453D01*
X124883555Y-116808814D01*
X124854323Y-116633584D01*
X124848160Y-116579798D01*
X124821495Y-116426479D01*
X124784502Y-116337652D01*
X124769602Y-116328751D01*
X124721337Y-116281361D01*
X124716481Y-116247530D01*
X124770228Y-116182168D01*
X124910215Y-116128686D01*
X125104556Y-116097021D01*
X125213352Y-116092503D01*
X125213352Y-116211631D01*
X125071620Y-116222519D01*
X124992139Y-116249992D01*
X124958786Y-116336451D01*
X124952760Y-116402360D01*
X124969941Y-116476544D01*
X125043516Y-116491239D01*
X125141390Y-116473917D01*
X125302345Y-116418917D01*
X125403029Y-116353284D01*
X125403029Y-116512910D01*
X125346649Y-116526084D01*
X125191381Y-116560405D01*
X125125138Y-116565030D01*
X125040946Y-116595921D01*
X125012440Y-116707047D01*
X125011829Y-116738754D01*
X125030118Y-116875227D01*
X125071148Y-116949138D01*
X125153876Y-116944431D01*
X125294772Y-116890274D01*
X125368148Y-116852214D01*
X125508336Y-116769077D01*
X125557078Y-116718615D01*
X125527449Y-116678441D01*
X125484186Y-116653527D01*
X125407796Y-116585893D01*
X125408698Y-116537782D01*
X125403029Y-116512910D01*
X125403029Y-116353284D01*
X125416039Y-116344803D01*
X125454947Y-116272319D01*
X125442195Y-116247179D01*
X125356532Y-116219729D01*
X125213352Y-116211631D01*
X125213352Y-116092503D01*
X125214091Y-116092472D01*
X125328860Y-116047751D01*
X125414120Y-115902407D01*
X125414843Y-115900496D01*
X125501892Y-115720757D01*
X125611995Y-115560476D01*
X125722835Y-115445922D01*
X125812095Y-115403367D01*
X125832262Y-115409126D01*
X125891651Y-115490281D01*
X125883152Y-115579138D01*
X125813559Y-115619914D01*
X125714254Y-115667571D01*
X125603970Y-115782327D01*
X125516272Y-115921861D01*
X125484388Y-116034965D01*
X125534775Y-116126280D01*
X125656609Y-116179850D01*
X125661597Y-116179956D01*
X125661597Y-116446891D01*
X125604063Y-116467045D01*
X125602527Y-116472940D01*
X125643919Y-116523372D01*
X125661597Y-116535496D01*
X125716029Y-116530812D01*
X125720667Y-116509447D01*
X125677787Y-116449295D01*
X125661597Y-116446891D01*
X125661597Y-116179956D01*
X125805893Y-116183038D01*
X125895205Y-116152972D01*
X126044666Y-116104933D01*
X126159807Y-116092472D01*
X126200458Y-116082402D01*
X126200458Y-116210612D01*
X126105083Y-116240200D01*
X126063482Y-116342477D01*
X126065913Y-116525713D01*
X126048393Y-116605746D01*
X125994659Y-116604510D01*
X125936212Y-116537545D01*
X125907280Y-116447456D01*
X125882188Y-116359608D01*
X125842821Y-116381648D01*
X125837565Y-116389830D01*
X125822382Y-116511387D01*
X125891082Y-116634442D01*
X126010929Y-116711091D01*
X126155457Y-116724743D01*
X126276806Y-116708687D01*
X126379887Y-116664519D01*
X126420683Y-116576000D01*
X126424840Y-116455255D01*
X126415149Y-116336054D01*
X126396729Y-116303296D01*
X126390383Y-116313984D01*
X126312676Y-116380262D01*
X126269674Y-116387821D01*
X126211026Y-116371895D01*
X126246480Y-116306293D01*
X126252295Y-116299217D01*
X126290342Y-116231323D01*
X126229116Y-116211098D01*
X126200458Y-116210612D01*
X126200458Y-116082402D01*
X126281481Y-116062331D01*
X126311364Y-116003868D01*
X126360985Y-115931797D01*
X126433387Y-115915263D01*
X126561418Y-115892233D01*
X126561418Y-116058161D01*
X126542598Y-116066056D01*
X126513332Y-116137768D01*
X126521227Y-116156587D01*
X126592939Y-116185853D01*
X126603495Y-116181426D01*
X126603495Y-116269682D01*
X126558476Y-116321218D01*
X126560243Y-116446891D01*
X126565696Y-116570481D01*
X126542916Y-116624038D01*
X126541744Y-116624100D01*
X126491389Y-116672613D01*
X126470222Y-116727472D01*
X126443993Y-116822395D01*
X126436356Y-116845612D01*
X126477842Y-116858688D01*
X126518108Y-116860379D01*
X126596470Y-116815260D01*
X126606713Y-116775994D01*
X126645609Y-116666868D01*
X126693671Y-116604651D01*
X126750484Y-116526326D01*
X126712764Y-116461909D01*
X126694321Y-116446064D01*
X126637025Y-116363233D01*
X126640385Y-116322058D01*
X126627658Y-116273745D01*
X126603495Y-116269682D01*
X126603495Y-116181426D01*
X126611758Y-116177959D01*
X126641024Y-116106247D01*
X126633130Y-116087427D01*
X126561418Y-116058161D01*
X126561418Y-115892233D01*
X126591450Y-115886830D01*
X126663561Y-115857382D01*
X126746647Y-115834750D01*
X126794537Y-115899631D01*
X126812035Y-115960163D01*
X126865050Y-116094572D01*
X126921513Y-116165718D01*
X126956851Y-116219411D01*
X126914033Y-116260128D01*
X126871042Y-116314973D01*
X126928801Y-116385501D01*
X127008174Y-116507455D01*
X127011775Y-116645049D01*
X126943186Y-116750803D01*
X126943186Y-116750803D01*
G37*
X126943186Y-116750803D02*
X126899593Y-116772558D01*
X126812147Y-116833588D01*
X126817805Y-116933149D01*
X126830472Y-117020443D01*
X126773699Y-117023396D01*
X126761204Y-117018843D01*
X126680061Y-117022266D01*
X126665783Y-117068977D01*
X126633295Y-117146388D01*
X126606713Y-117155728D01*
X126549320Y-117114838D01*
X126547643Y-117102188D01*
X126501012Y-117070685D01*
X126437650Y-117077413D01*
X126334321Y-117056076D01*
X126271795Y-116966162D01*
X126283926Y-116857025D01*
X126285124Y-116855049D01*
X126256496Y-116820020D01*
X126143497Y-116801970D01*
X126111592Y-116801310D01*
X125963476Y-116786238D01*
X125873821Y-116749360D01*
X125869089Y-116743449D01*
X125801183Y-116721205D01*
X125706426Y-116766313D01*
X125626904Y-116850187D01*
X125602527Y-116924503D01*
X125647359Y-117034505D01*
X125752172Y-117153759D01*
X125872444Y-117236419D01*
X125917967Y-117249309D01*
X126042086Y-117262694D01*
X126060318Y-117264871D01*
X126126245Y-117312967D01*
X126123810Y-117393475D01*
X126060495Y-117448228D01*
X126036359Y-117451077D01*
X125911203Y-117410078D01*
X125755594Y-117309190D01*
X125611869Y-117181575D01*
X125522363Y-117060397D01*
X125515720Y-117043251D01*
X125481047Y-116971262D01*
X125418887Y-116967061D01*
X125306802Y-117017095D01*
X125125094Y-117086675D01*
X124921048Y-117137398D01*
X124910277Y-117139185D01*
X124743030Y-117190154D01*
X124621569Y-117269149D01*
X124609759Y-117283441D01*
X124497731Y-117379872D01*
X124375105Y-117361208D01*
X124272352Y-117272646D01*
X124164332Y-117153285D01*
X124008918Y-117302181D01*
X123826387Y-117425711D01*
X123646502Y-117433683D01*
X123454447Y-117328650D01*
X123330200Y-117180181D01*
X123298806Y-117007612D01*
X123324496Y-116766589D01*
X123393065Y-116585915D01*
X123491766Y-116481005D01*
X123607849Y-116467269D01*
X123697816Y-116525236D01*
X123758435Y-116615073D01*
X123743523Y-116722758D01*
X123720559Y-116777226D01*
X123671819Y-116913964D01*
X123691739Y-116956663D01*
X123778125Y-116905815D01*
X123928786Y-116761916D01*
X123966677Y-116721757D01*
X124111400Y-116578474D01*
X124233417Y-116479039D01*
X124279026Y-116456733D01*
X124279026Y-116936972D01*
X124243922Y-116978519D01*
X124190795Y-117072772D01*
X124210804Y-117085329D01*
X124243922Y-117067124D01*
X124300084Y-116980857D01*
X124302088Y-116960265D01*
X124279026Y-116936972D01*
X124279026Y-116456733D01*
X124299147Y-116446891D01*
X124338134Y-116421673D01*
X124300480Y-116333273D01*
X124279060Y-116299477D01*
X124212087Y-116112295D01*
X124219377Y-116005016D01*
X124226499Y-115891337D01*
X124154762Y-115822490D01*
X124091120Y-115795174D01*
X123922602Y-115763772D01*
X123697534Y-115763373D01*
X123612381Y-115771557D01*
X123298806Y-115810736D01*
X123298806Y-115600672D01*
X123310029Y-115455583D01*
X123337593Y-115372427D01*
X123343108Y-115367978D01*
X123417148Y-115357370D01*
X123582813Y-115346345D01*
X123813604Y-115336378D01*
X124018776Y-115330358D01*
X124650141Y-115315367D01*
X124651186Y-115790895D01*
X124644711Y-116059251D01*
X124621298Y-116233830D01*
X124577090Y-116338265D01*
X124558321Y-116360333D01*
X124499761Y-116436662D01*
X124530233Y-116497045D01*
X124590446Y-116542521D01*
X124685131Y-116656020D01*
X124716286Y-116837229D01*
X124716481Y-116858199D01*
X124724156Y-117004057D01*
X124758717Y-117060025D01*
X124837461Y-117053961D01*
X124837961Y-117053830D01*
X124924350Y-117000621D01*
X124916518Y-116926453D01*
X124883555Y-116808814D01*
X124854323Y-116633584D01*
X124848160Y-116579798D01*
X124821495Y-116426479D01*
X124784502Y-116337652D01*
X124769602Y-116328751D01*
X124721337Y-116281361D01*
X124716481Y-116247530D01*
X124770228Y-116182168D01*
X124910215Y-116128686D01*
X125104556Y-116097021D01*
X125213352Y-116092503D01*
X125213352Y-116211631D01*
X125071620Y-116222519D01*
X124992139Y-116249992D01*
X124958786Y-116336451D01*
X124952760Y-116402360D01*
X124969941Y-116476544D01*
X125043516Y-116491239D01*
X125141390Y-116473917D01*
X125302345Y-116418917D01*
X125403029Y-116353284D01*
X125403029Y-116512910D01*
X125346649Y-116526084D01*
X125191381Y-116560405D01*
X125125138Y-116565030D01*
X125040946Y-116595921D01*
X125012440Y-116707047D01*
X125011829Y-116738754D01*
X125030118Y-116875227D01*
X125071148Y-116949138D01*
X125153876Y-116944431D01*
X125294772Y-116890274D01*
X125368148Y-116852214D01*
X125508336Y-116769077D01*
X125557078Y-116718615D01*
X125527449Y-116678441D01*
X125484186Y-116653527D01*
X125407796Y-116585893D01*
X125408698Y-116537782D01*
X125403029Y-116512910D01*
X125403029Y-116353284D01*
X125416039Y-116344803D01*
X125454947Y-116272319D01*
X125442195Y-116247179D01*
X125356532Y-116219729D01*
X125213352Y-116211631D01*
X125213352Y-116092503D01*
X125214091Y-116092472D01*
X125328860Y-116047751D01*
X125414120Y-115902407D01*
X125414843Y-115900496D01*
X125501892Y-115720757D01*
X125611995Y-115560476D01*
X125722835Y-115445922D01*
X125812095Y-115403367D01*
X125832262Y-115409126D01*
X125891651Y-115490281D01*
X125883152Y-115579138D01*
X125813559Y-115619914D01*
X125714254Y-115667571D01*
X125603970Y-115782327D01*
X125516272Y-115921861D01*
X125484388Y-116034965D01*
X125534775Y-116126280D01*
X125656609Y-116179850D01*
X125661597Y-116179956D01*
X125661597Y-116446891D01*
X125604063Y-116467045D01*
X125602527Y-116472940D01*
X125643919Y-116523372D01*
X125661597Y-116535496D01*
X125716029Y-116530812D01*
X125720667Y-116509447D01*
X125677787Y-116449295D01*
X125661597Y-116446891D01*
X125661597Y-116179956D01*
X125805893Y-116183038D01*
X125895205Y-116152972D01*
X126044666Y-116104933D01*
X126159807Y-116092472D01*
X126200458Y-116082402D01*
X126200458Y-116210612D01*
X126105083Y-116240200D01*
X126063482Y-116342477D01*
X126065913Y-116525713D01*
X126048393Y-116605746D01*
X125994659Y-116604510D01*
X125936212Y-116537545D01*
X125907280Y-116447456D01*
X125882188Y-116359608D01*
X125842821Y-116381648D01*
X125837565Y-116389830D01*
X125822382Y-116511387D01*
X125891082Y-116634442D01*
X126010929Y-116711091D01*
X126155457Y-116724743D01*
X126276806Y-116708687D01*
X126379887Y-116664519D01*
X126420683Y-116576000D01*
X126424840Y-116455255D01*
X126415149Y-116336054D01*
X126396729Y-116303296D01*
X126390383Y-116313984D01*
X126312676Y-116380262D01*
X126269674Y-116387821D01*
X126211026Y-116371895D01*
X126246480Y-116306293D01*
X126252295Y-116299217D01*
X126290342Y-116231323D01*
X126229116Y-116211098D01*
X126200458Y-116210612D01*
X126200458Y-116082402D01*
X126281481Y-116062331D01*
X126311364Y-116003868D01*
X126360985Y-115931797D01*
X126433387Y-115915263D01*
X126561418Y-115892233D01*
X126561418Y-116058161D01*
X126542598Y-116066056D01*
X126513332Y-116137768D01*
X126521227Y-116156587D01*
X126592939Y-116185853D01*
X126603495Y-116181426D01*
X126603495Y-116269682D01*
X126558476Y-116321218D01*
X126560243Y-116446891D01*
X126565696Y-116570481D01*
X126542916Y-116624038D01*
X126541744Y-116624100D01*
X126491389Y-116672613D01*
X126470222Y-116727472D01*
X126443993Y-116822395D01*
X126436356Y-116845612D01*
X126477842Y-116858688D01*
X126518108Y-116860379D01*
X126596470Y-116815260D01*
X126606713Y-116775994D01*
X126645609Y-116666868D01*
X126693671Y-116604651D01*
X126750484Y-116526326D01*
X126712764Y-116461909D01*
X126694321Y-116446064D01*
X126637025Y-116363233D01*
X126640385Y-116322058D01*
X126627658Y-116273745D01*
X126603495Y-116269682D01*
X126603495Y-116181426D01*
X126611758Y-116177959D01*
X126641024Y-116106247D01*
X126633130Y-116087427D01*
X126561418Y-116058161D01*
X126561418Y-115892233D01*
X126591450Y-115886830D01*
X126663561Y-115857382D01*
X126746647Y-115834750D01*
X126794537Y-115899631D01*
X126812035Y-115960163D01*
X126865050Y-116094572D01*
X126921513Y-116165718D01*
X126956851Y-116219411D01*
X126914033Y-116260128D01*
X126871042Y-116314973D01*
X126928801Y-116385501D01*
X127008174Y-116507455D01*
X127011775Y-116645049D01*
X126943186Y-116750803D01*
G36*
X124699108Y-114921039D02*
X124646331Y-115010380D01*
X124542343Y-115106171D01*
X124541073Y-115107240D01*
X124408947Y-115200959D01*
X124268997Y-115248849D01*
X124073484Y-115264838D01*
X123998567Y-115265496D01*
X123787599Y-115258319D01*
X123649591Y-115227005D01*
X123539743Y-115156880D01*
X123471472Y-115092830D01*
X123334933Y-114876555D01*
X123300474Y-114608915D01*
X123366716Y-114307848D01*
X123488377Y-114131017D01*
X123690718Y-113993575D01*
X123937740Y-113916403D01*
X124057986Y-113906891D01*
X124088890Y-113911237D01*
X124088890Y-114391027D01*
X123905978Y-114411136D01*
X123808308Y-114469083D01*
X123725349Y-114580354D01*
X123737448Y-114680882D01*
X123830434Y-114792937D01*
X123941889Y-114887765D01*
X124034305Y-114898114D01*
X124159547Y-114827572D01*
X124175082Y-114816761D01*
X124280902Y-114689169D01*
X124291597Y-114565714D01*
X124254816Y-114450344D01*
X124155575Y-114400292D01*
X124088890Y-114391027D01*
X124088890Y-113911237D01*
X124272068Y-113937000D01*
X124454008Y-114044673D01*
X124489633Y-114075319D01*
X124600425Y-114189935D01*
X124662363Y-114311185D01*
X124693977Y-114484186D01*
X124703643Y-114596367D01*
X124713828Y-114796812D01*
X124699108Y-114921039D01*
X124699108Y-114921039D01*
G37*
X124699108Y-114921039D02*
X124646331Y-115010380D01*
X124542343Y-115106171D01*
X124541073Y-115107240D01*
X124408947Y-115200959D01*
X124268997Y-115248849D01*
X124073484Y-115264838D01*
X123998567Y-115265496D01*
X123787599Y-115258319D01*
X123649591Y-115227005D01*
X123539743Y-115156880D01*
X123471472Y-115092830D01*
X123334933Y-114876555D01*
X123300474Y-114608915D01*
X123366716Y-114307848D01*
X123488377Y-114131017D01*
X123690718Y-113993575D01*
X123937740Y-113916403D01*
X124057986Y-113906891D01*
X124088890Y-113911237D01*
X124088890Y-114391027D01*
X123905978Y-114411136D01*
X123808308Y-114469083D01*
X123725349Y-114580354D01*
X123737448Y-114680882D01*
X123830434Y-114792937D01*
X123941889Y-114887765D01*
X124034305Y-114898114D01*
X124159547Y-114827572D01*
X124175082Y-114816761D01*
X124280902Y-114689169D01*
X124291597Y-114565714D01*
X124254816Y-114450344D01*
X124155575Y-114400292D01*
X124088890Y-114391027D01*
X124088890Y-113911237D01*
X124272068Y-113937000D01*
X124454008Y-114044673D01*
X124489633Y-114075319D01*
X124600425Y-114189935D01*
X124662363Y-114311185D01*
X124693977Y-114484186D01*
X124703643Y-114596367D01*
X124713828Y-114796812D01*
X124699108Y-114921039D01*
G36*
X124693923Y-113510048D02*
X124635420Y-113687632D01*
X124547173Y-113811070D01*
X124456472Y-113847821D01*
X124361839Y-113807477D01*
X124277904Y-113734595D01*
X124209471Y-113621332D01*
X124233993Y-113497553D01*
X124240420Y-113483549D01*
X124279614Y-113395635D01*
X124263948Y-113407463D01*
X124230361Y-113455499D01*
X124089132Y-113653502D01*
X123982613Y-113771102D01*
X123884021Y-113828770D01*
X123766578Y-113846980D01*
X123717162Y-113847821D01*
X123508186Y-113812507D01*
X123396566Y-113739798D01*
X123324082Y-113585548D01*
X123304230Y-113372130D01*
X123337201Y-113146243D01*
X123393551Y-113002473D01*
X123501700Y-112879204D01*
X123620358Y-112868246D01*
X123731795Y-112971155D01*
X123732770Y-112972697D01*
X123762082Y-113092416D01*
X123714400Y-113223654D01*
X123667423Y-113357476D01*
X123688210Y-113420375D01*
X123756755Y-113395143D01*
X123822124Y-113316309D01*
X124010877Y-113087300D01*
X124210355Y-112946513D01*
X124404245Y-112900478D01*
X124576236Y-112955722D01*
X124623657Y-112995529D01*
X124694771Y-113129685D01*
X124715950Y-113312629D01*
X124693923Y-113510048D01*
X124693923Y-113510048D01*
G37*
X124693923Y-113510048D02*
X124635420Y-113687632D01*
X124547173Y-113811070D01*
X124456472Y-113847821D01*
X124361839Y-113807477D01*
X124277904Y-113734595D01*
X124209471Y-113621332D01*
X124233993Y-113497553D01*
X124240420Y-113483549D01*
X124279614Y-113395635D01*
X124263948Y-113407463D01*
X124230361Y-113455499D01*
X124089132Y-113653502D01*
X123982613Y-113771102D01*
X123884021Y-113828770D01*
X123766578Y-113846980D01*
X123717162Y-113847821D01*
X123508186Y-113812507D01*
X123396566Y-113739798D01*
X123324082Y-113585548D01*
X123304230Y-113372130D01*
X123337201Y-113146243D01*
X123393551Y-113002473D01*
X123501700Y-112879204D01*
X123620358Y-112868246D01*
X123731795Y-112971155D01*
X123732770Y-112972697D01*
X123762082Y-113092416D01*
X123714400Y-113223654D01*
X123667423Y-113357476D01*
X123688210Y-113420375D01*
X123756755Y-113395143D01*
X123822124Y-113316309D01*
X124010877Y-113087300D01*
X124210355Y-112946513D01*
X124404245Y-112900478D01*
X124576236Y-112955722D01*
X124623657Y-112995529D01*
X124694771Y-113129685D01*
X124715950Y-113312629D01*
X124693923Y-113510048D01*
G36*
X124637441Y-112504579D02*
X124529245Y-112647711D01*
X124343221Y-112734242D01*
X124065865Y-112775826D01*
X123767519Y-112784565D01*
X123298806Y-112784565D01*
X123298806Y-112319490D01*
X123667992Y-112327990D01*
X123898165Y-112320082D01*
X124090795Y-112289877D01*
X124176977Y-112259413D01*
X124271144Y-112196398D01*
X124268852Y-112139880D01*
X124221089Y-112086649D01*
X124085276Y-112018978D01*
X123837563Y-111977021D01*
X123712105Y-111967610D01*
X123496364Y-111953505D01*
X123372861Y-111933704D01*
X123315869Y-111896138D01*
X123299660Y-111828736D01*
X123298806Y-111773713D01*
X123298806Y-111603170D01*
X124641236Y-111603170D01*
X124674372Y-112001891D01*
X124681316Y-112293191D01*
X124637441Y-112504579D01*
X124637441Y-112504579D01*
G37*
X124637441Y-112504579D02*
X124529245Y-112647711D01*
X124343221Y-112734242D01*
X124065865Y-112775826D01*
X123767519Y-112784565D01*
X123298806Y-112784565D01*
X123298806Y-112319490D01*
X123667992Y-112327990D01*
X123898165Y-112320082D01*
X124090795Y-112289877D01*
X124176977Y-112259413D01*
X124271144Y-112196398D01*
X124268852Y-112139880D01*
X124221089Y-112086649D01*
X124085276Y-112018978D01*
X123837563Y-111977021D01*
X123712105Y-111967610D01*
X123496364Y-111953505D01*
X123372861Y-111933704D01*
X123315869Y-111896138D01*
X123299660Y-111828736D01*
X123298806Y-111773713D01*
X123298806Y-111603170D01*
X124641236Y-111603170D01*
X124674372Y-112001891D01*
X124681316Y-112293191D01*
X124637441Y-112504579D01*
G36*
X124633540Y-111181626D02*
X124483726Y-111367842D01*
X124330501Y-111460149D01*
X124103915Y-111533960D01*
X123954734Y-111529218D01*
X123870709Y-111444307D01*
X123854952Y-111397467D01*
X123818150Y-111250834D01*
X123706333Y-111382700D01*
X123594516Y-111514565D01*
X123446661Y-111348830D01*
X123328826Y-111135832D01*
X123288165Y-110875857D01*
X123324533Y-110611251D01*
X123387411Y-110485277D01*
X123387411Y-110953403D01*
X123357876Y-110982937D01*
X123387411Y-111012472D01*
X123416946Y-110982937D01*
X123387411Y-110953403D01*
X123387411Y-110485277D01*
X123437783Y-110384358D01*
X123450041Y-110369246D01*
X123564620Y-110280139D01*
X123564620Y-111012472D01*
X123535085Y-111042007D01*
X123564620Y-111071542D01*
X123594155Y-111042007D01*
X123564620Y-111012472D01*
X123564620Y-110280139D01*
X123661344Y-110204916D01*
X123777381Y-110176078D01*
X123777381Y-110575058D01*
X123741829Y-110598984D01*
X123669496Y-110727037D01*
X123664312Y-110901581D01*
X123726087Y-111072038D01*
X123743708Y-111097600D01*
X123791923Y-111151174D01*
X123817980Y-111137426D01*
X123828578Y-111038688D01*
X123830434Y-110868855D01*
X123826740Y-110679708D01*
X123811256Y-110588478D01*
X123777381Y-110575058D01*
X123777381Y-110176078D01*
X123927196Y-110138845D01*
X124231103Y-110174901D01*
X124243922Y-110178606D01*
X124243922Y-110687589D01*
X124198451Y-110698094D01*
X124188090Y-110779739D01*
X124212838Y-110890861D01*
X124243922Y-110953403D01*
X124285090Y-110994060D01*
X124300858Y-110932416D01*
X124302088Y-110883051D01*
X124282939Y-110752255D01*
X124243922Y-110687589D01*
X124243922Y-110178606D01*
X124252445Y-110181070D01*
X124473866Y-110300521D01*
X124624332Y-110487279D01*
X124702197Y-110714367D01*
X124705816Y-110954808D01*
X124633540Y-111181626D01*
X124633540Y-111181626D01*
G37*
X124633540Y-111181626D02*
X124483726Y-111367842D01*
X124330501Y-111460149D01*
X124103915Y-111533960D01*
X123954734Y-111529218D01*
X123870709Y-111444307D01*
X123854952Y-111397467D01*
X123818150Y-111250834D01*
X123706333Y-111382700D01*
X123594516Y-111514565D01*
X123446661Y-111348830D01*
X123328826Y-111135832D01*
X123288165Y-110875857D01*
X123324533Y-110611251D01*
X123387411Y-110485277D01*
X123387411Y-110953403D01*
X123357876Y-110982937D01*
X123387411Y-111012472D01*
X123416946Y-110982937D01*
X123387411Y-110953403D01*
X123387411Y-110485277D01*
X123437783Y-110384358D01*
X123450041Y-110369246D01*
X123564620Y-110280139D01*
X123564620Y-111012472D01*
X123535085Y-111042007D01*
X123564620Y-111071542D01*
X123594155Y-111042007D01*
X123564620Y-111012472D01*
X123564620Y-110280139D01*
X123661344Y-110204916D01*
X123777381Y-110176078D01*
X123777381Y-110575058D01*
X123741829Y-110598984D01*
X123669496Y-110727037D01*
X123664312Y-110901581D01*
X123726087Y-111072038D01*
X123743708Y-111097600D01*
X123791923Y-111151174D01*
X123817980Y-111137426D01*
X123828578Y-111038688D01*
X123830434Y-110868855D01*
X123826740Y-110679708D01*
X123811256Y-110588478D01*
X123777381Y-110575058D01*
X123777381Y-110176078D01*
X123927196Y-110138845D01*
X124231103Y-110174901D01*
X124243922Y-110178606D01*
X124243922Y-110687589D01*
X124198451Y-110698094D01*
X124188090Y-110779739D01*
X124212838Y-110890861D01*
X124243922Y-110953403D01*
X124285090Y-110994060D01*
X124300858Y-110932416D01*
X124302088Y-110883051D01*
X124282939Y-110752255D01*
X124243922Y-110687589D01*
X124243922Y-110178606D01*
X124252445Y-110181070D01*
X124473866Y-110300521D01*
X124624332Y-110487279D01*
X124702197Y-110714367D01*
X124705816Y-110954808D01*
X124633540Y-111181626D01*
G36*
X125078893Y-109714124D02*
X124998780Y-109865158D01*
X124940234Y-109929523D01*
X124832336Y-110030142D01*
X124763420Y-110053717D01*
X124690342Y-110008127D01*
X124659652Y-109980780D01*
X124556437Y-109849563D01*
X124556698Y-109744910D01*
X124627876Y-109691576D01*
X124699588Y-109624607D01*
X124711795Y-109536263D01*
X124661752Y-109479637D01*
X124638984Y-109476658D01*
X124556098Y-109520511D01*
X124449953Y-109628835D01*
X124427861Y-109657399D01*
X124220609Y-109869571D01*
X123977013Y-110013370D01*
X123733906Y-110067125D01*
X123731349Y-110067135D01*
X123537602Y-110017288D01*
X123396062Y-109885546D01*
X123314245Y-109699375D01*
X123299671Y-109486243D01*
X123359857Y-109273615D01*
X123471472Y-109117696D01*
X123616185Y-108989934D01*
X123718741Y-108955729D01*
X123806993Y-109013474D01*
X123866840Y-109094902D01*
X123928710Y-109206702D01*
X123916554Y-109286476D01*
X123838667Y-109379290D01*
X123734242Y-109508455D01*
X123724166Y-109577383D01*
X123789388Y-109594798D01*
X123866516Y-109554676D01*
X123995062Y-109449415D01*
X124147399Y-109301674D01*
X124149534Y-109299449D01*
X124315001Y-109136982D01*
X124440472Y-109046954D01*
X124559764Y-109009563D01*
X124653983Y-109004100D01*
X124878988Y-109047652D01*
X125025512Y-109178958D01*
X125094415Y-109398994D01*
X125100434Y-109511052D01*
X125078893Y-109714124D01*
X125078893Y-109714124D01*
G37*
X125078893Y-109714124D02*
X124998780Y-109865158D01*
X124940234Y-109929523D01*
X124832336Y-110030142D01*
X124763420Y-110053717D01*
X124690342Y-110008127D01*
X124659652Y-109980780D01*
X124556437Y-109849563D01*
X124556698Y-109744910D01*
X124627876Y-109691576D01*
X124699588Y-109624607D01*
X124711795Y-109536263D01*
X124661752Y-109479637D01*
X124638984Y-109476658D01*
X124556098Y-109520511D01*
X124449953Y-109628835D01*
X124427861Y-109657399D01*
X124220609Y-109869571D01*
X123977013Y-110013370D01*
X123733906Y-110067125D01*
X123731349Y-110067135D01*
X123537602Y-110017288D01*
X123396062Y-109885546D01*
X123314245Y-109699375D01*
X123299671Y-109486243D01*
X123359857Y-109273615D01*
X123471472Y-109117696D01*
X123616185Y-108989934D01*
X123718741Y-108955729D01*
X123806993Y-109013474D01*
X123866840Y-109094902D01*
X123928710Y-109206702D01*
X123916554Y-109286476D01*
X123838667Y-109379290D01*
X123734242Y-109508455D01*
X123724166Y-109577383D01*
X123789388Y-109594798D01*
X123866516Y-109554676D01*
X123995062Y-109449415D01*
X124147399Y-109301674D01*
X124149534Y-109299449D01*
X124315001Y-109136982D01*
X124440472Y-109046954D01*
X124559764Y-109009563D01*
X124653983Y-109004100D01*
X124878988Y-109047652D01*
X125025512Y-109178958D01*
X125094415Y-109398994D01*
X125100434Y-109511052D01*
X125078893Y-109714124D01*
G36*
X125052233Y-107287704D02*
X124972473Y-107367295D01*
X124884875Y-107403438D01*
X124715138Y-107449906D01*
X124574759Y-107469191D01*
X124500432Y-107484646D01*
X124517083Y-107513493D01*
X124576021Y-107598281D01*
X124621132Y-107734100D01*
X124633612Y-107849666D01*
X124593716Y-107930521D01*
X124477938Y-108013446D01*
X124421809Y-108045980D01*
X124280676Y-108136633D01*
X124195866Y-108211262D01*
X124184853Y-108233376D01*
X124235387Y-108283277D01*
X124361193Y-108342477D01*
X124406364Y-108358312D01*
X124588318Y-108433106D01*
X124681326Y-108527667D01*
X124713483Y-108677859D01*
X124715576Y-108753054D01*
X124710244Y-108855064D01*
X124681526Y-108915253D01*
X124612069Y-108933127D01*
X124484525Y-108908191D01*
X124281542Y-108839950D01*
X123997943Y-108732601D01*
X123724745Y-108629739D01*
X123457975Y-108533338D01*
X123239554Y-108458395D01*
X123165899Y-108434964D01*
X122998969Y-108378841D01*
X122916255Y-108321018D01*
X122888223Y-108227892D01*
X122885318Y-108115765D01*
X122893466Y-107968596D01*
X122913798Y-107887362D01*
X122921692Y-107881775D01*
X122994084Y-107900012D01*
X123138086Y-107946492D01*
X123234749Y-107980044D01*
X123511431Y-108078312D01*
X123938699Y-107824477D01*
X124129899Y-107706939D01*
X124271167Y-107612482D01*
X124340427Y-107556192D01*
X124343314Y-107547988D01*
X124278025Y-107544562D01*
X124127839Y-107556993D01*
X123924536Y-107582603D01*
X123913105Y-107584245D01*
X123637222Y-107623141D01*
X123458356Y-107640576D01*
X123356491Y-107631232D01*
X123311614Y-107589789D01*
X123303709Y-107510930D01*
X123310008Y-107423984D01*
X123331777Y-107277626D01*
X123387965Y-107211756D01*
X123514345Y-107188731D01*
X123535085Y-107187122D01*
X123749165Y-107164688D01*
X123948574Y-107135443D01*
X124053416Y-107114776D01*
X124083940Y-107094915D01*
X124028709Y-107066225D01*
X123876284Y-107019069D01*
X123776146Y-106990180D01*
X123535760Y-106915687D01*
X123390365Y-106851165D01*
X123319599Y-106781075D01*
X123303099Y-106689877D01*
X123308572Y-106633355D01*
X123367564Y-106516466D01*
X123517642Y-106401252D01*
X123769444Y-106280537D01*
X123916075Y-106223507D01*
X124015530Y-106181741D01*
X124039385Y-106151360D01*
X123976250Y-106126493D01*
X123814735Y-106101269D01*
X123638457Y-106080416D01*
X123298806Y-106042111D01*
X123298806Y-105625134D01*
X123727062Y-105665956D01*
X123980747Y-105694398D01*
X124223460Y-105728662D01*
X124391597Y-105759112D01*
X124597178Y-105794436D01*
X124791259Y-105812399D01*
X124813533Y-105812889D01*
X124967053Y-105843799D01*
X125047716Y-105946428D01*
X125070899Y-106137644D01*
X125033193Y-106253449D01*
X124908457Y-106314797D01*
X124738425Y-106367573D01*
X124548497Y-106441281D01*
X124371233Y-106521197D01*
X124239195Y-106592597D01*
X124184944Y-106640758D01*
X124184853Y-106642010D01*
X124236567Y-106680926D01*
X124364614Y-106720281D01*
X124401941Y-106727957D01*
X124608712Y-106779480D01*
X124824338Y-106851009D01*
X124844964Y-106859085D01*
X124992018Y-106930670D01*
X125056663Y-107013143D01*
X125070899Y-107144038D01*
X125052233Y-107287704D01*
X125052233Y-107287704D01*
G37*
X125052233Y-107287704D02*
X124972473Y-107367295D01*
X124884875Y-107403438D01*
X124715138Y-107449906D01*
X124574759Y-107469191D01*
X124500432Y-107484646D01*
X124517083Y-107513493D01*
X124576021Y-107598281D01*
X124621132Y-107734100D01*
X124633612Y-107849666D01*
X124593716Y-107930521D01*
X124477938Y-108013446D01*
X124421809Y-108045980D01*
X124280676Y-108136633D01*
X124195866Y-108211262D01*
X124184853Y-108233376D01*
X124235387Y-108283277D01*
X124361193Y-108342477D01*
X124406364Y-108358312D01*
X124588318Y-108433106D01*
X124681326Y-108527667D01*
X124713483Y-108677859D01*
X124715576Y-108753054D01*
X124710244Y-108855064D01*
X124681526Y-108915253D01*
X124612069Y-108933127D01*
X124484525Y-108908191D01*
X124281542Y-108839950D01*
X123997943Y-108732601D01*
X123724745Y-108629739D01*
X123457975Y-108533338D01*
X123239554Y-108458395D01*
X123165899Y-108434964D01*
X122998969Y-108378841D01*
X122916255Y-108321018D01*
X122888223Y-108227892D01*
X122885318Y-108115765D01*
X122893466Y-107968596D01*
X122913798Y-107887362D01*
X122921692Y-107881775D01*
X122994084Y-107900012D01*
X123138086Y-107946492D01*
X123234749Y-107980044D01*
X123511431Y-108078312D01*
X123938699Y-107824477D01*
X124129899Y-107706939D01*
X124271167Y-107612482D01*
X124340427Y-107556192D01*
X124343314Y-107547988D01*
X124278025Y-107544562D01*
X124127839Y-107556993D01*
X123924536Y-107582603D01*
X123913105Y-107584245D01*
X123637222Y-107623141D01*
X123458356Y-107640576D01*
X123356491Y-107631232D01*
X123311614Y-107589789D01*
X123303709Y-107510930D01*
X123310008Y-107423984D01*
X123331777Y-107277626D01*
X123387965Y-107211756D01*
X123514345Y-107188731D01*
X123535085Y-107187122D01*
X123749165Y-107164688D01*
X123948574Y-107135443D01*
X124053416Y-107114776D01*
X124083940Y-107094915D01*
X124028709Y-107066225D01*
X123876284Y-107019069D01*
X123776146Y-106990180D01*
X123535760Y-106915687D01*
X123390365Y-106851165D01*
X123319599Y-106781075D01*
X123303099Y-106689877D01*
X123308572Y-106633355D01*
X123367564Y-106516466D01*
X123517642Y-106401252D01*
X123769444Y-106280537D01*
X123916075Y-106223507D01*
X124015530Y-106181741D01*
X124039385Y-106151360D01*
X123976250Y-106126493D01*
X123814735Y-106101269D01*
X123638457Y-106080416D01*
X123298806Y-106042111D01*
X123298806Y-105625134D01*
X123727062Y-105665956D01*
X123980747Y-105694398D01*
X124223460Y-105728662D01*
X124391597Y-105759112D01*
X124597178Y-105794436D01*
X124791259Y-105812399D01*
X124813533Y-105812889D01*
X124967053Y-105843799D01*
X125047716Y-105946428D01*
X125070899Y-106137644D01*
X125033193Y-106253449D01*
X124908457Y-106314797D01*
X124738425Y-106367573D01*
X124548497Y-106441281D01*
X124371233Y-106521197D01*
X124239195Y-106592597D01*
X124184944Y-106640758D01*
X124184853Y-106642010D01*
X124236567Y-106680926D01*
X124364614Y-106720281D01*
X124401941Y-106727957D01*
X124608712Y-106779480D01*
X124824338Y-106851009D01*
X124844964Y-106859085D01*
X124992018Y-106930670D01*
X125056663Y-107013143D01*
X125070899Y-107144038D01*
X125052233Y-107287704D01*
G04 #@! TD*
M02*
