G04 #@! TF.GenerationSoftware,KiCad,Pcbnew,(5.0.2)-1*
G04 #@! TF.CreationDate,2019-07-28T22:47:38+08:00*
G04 #@! TF.ProjectId,I2CS,49324353-2e6b-4696-9361-645f70636258,rev?*
G04 #@! TF.SameCoordinates,Original*
G04 #@! TF.FileFunction,Soldermask,Top*
G04 #@! TF.FilePolarity,Negative*
%FSLAX46Y46*%
G04 Gerber Fmt 4.6, Leading zero omitted, Abs format (unit mm)*
G04 Created by KiCad (PCBNEW (5.0.2)-1) date 2019-07-28 22:47:38*
%MOMM*%
%LPD*%
G01*
G04 APERTURE LIST*
%ADD10C,0.200000*%
%ADD11C,0.100000*%
G04 APERTURE END LIST*
D10*
X125959915Y-94827816D02*
X126759915Y-94827816D01*
X125959915Y-95284959D01*
X126759915Y-95284959D01*
X125959915Y-96123054D02*
X126340867Y-95856387D01*
X125959915Y-95665911D02*
X126759915Y-95665911D01*
X126759915Y-95970673D01*
X126721820Y-96046863D01*
X126683724Y-96084959D01*
X126607534Y-96123054D01*
X126493248Y-96123054D01*
X126417058Y-96084959D01*
X126378962Y-96046863D01*
X126340867Y-95970673D01*
X126340867Y-95665911D01*
X126378962Y-96732578D02*
X126378962Y-96465911D01*
X125959915Y-96465911D02*
X126759915Y-96465911D01*
X126759915Y-96846863D01*
X126264677Y-97151625D02*
X126264677Y-97761149D01*
X125998010Y-98104006D02*
X125959915Y-98218292D01*
X125959915Y-98408768D01*
X125998010Y-98484959D01*
X126036105Y-98523054D01*
X126112296Y-98561149D01*
X126188486Y-98561149D01*
X126264677Y-98523054D01*
X126302772Y-98484959D01*
X126340867Y-98408768D01*
X126378962Y-98256387D01*
X126417058Y-98180197D01*
X126455153Y-98142101D01*
X126531343Y-98104006D01*
X126607534Y-98104006D01*
X126683724Y-98142101D01*
X126721820Y-98180197D01*
X126759915Y-98256387D01*
X126759915Y-98446863D01*
X126721820Y-98561149D01*
X126378962Y-98904006D02*
X126378962Y-99170673D01*
X125959915Y-99284959D02*
X125959915Y-98904006D01*
X126759915Y-98904006D01*
X126759915Y-99284959D01*
X125959915Y-99627816D02*
X126759915Y-99627816D01*
X125959915Y-100084959D01*
X126759915Y-100084959D01*
X125998010Y-100427816D02*
X125959915Y-100542101D01*
X125959915Y-100732578D01*
X125998010Y-100808768D01*
X126036105Y-100846863D01*
X126112296Y-100884959D01*
X126188486Y-100884959D01*
X126264677Y-100846863D01*
X126302772Y-100808768D01*
X126340867Y-100732578D01*
X126378962Y-100580197D01*
X126417058Y-100504006D01*
X126455153Y-100465911D01*
X126531343Y-100427816D01*
X126607534Y-100427816D01*
X126683724Y-100465911D01*
X126721820Y-100504006D01*
X126759915Y-100580197D01*
X126759915Y-100770673D01*
X126721820Y-100884959D01*
X126759915Y-101380197D02*
X126759915Y-101532578D01*
X126721820Y-101608768D01*
X126645629Y-101684959D01*
X126493248Y-101723054D01*
X126226581Y-101723054D01*
X126074200Y-101684959D01*
X125998010Y-101608768D01*
X125959915Y-101532578D01*
X125959915Y-101380197D01*
X125998010Y-101304006D01*
X126074200Y-101227816D01*
X126226581Y-101189720D01*
X126493248Y-101189720D01*
X126645629Y-101227816D01*
X126721820Y-101304006D01*
X126759915Y-101380197D01*
X125959915Y-102523054D02*
X126340867Y-102256387D01*
X125959915Y-102065911D02*
X126759915Y-102065911D01*
X126759915Y-102370673D01*
X126721820Y-102446863D01*
X126683724Y-102484959D01*
X126607534Y-102523054D01*
X126493248Y-102523054D01*
X126417058Y-102484959D01*
X126378962Y-102446863D01*
X126340867Y-102370673D01*
X126340867Y-102065911D01*
X125998010Y-102827816D02*
X125959915Y-102942101D01*
X125959915Y-103132578D01*
X125998010Y-103208768D01*
X126036105Y-103246863D01*
X126112296Y-103284959D01*
X126188486Y-103284959D01*
X126264677Y-103246863D01*
X126302772Y-103208768D01*
X126340867Y-103132578D01*
X126378962Y-102980197D01*
X126417058Y-102904006D01*
X126455153Y-102865911D01*
X126531343Y-102827816D01*
X126607534Y-102827816D01*
X126683724Y-102865911D01*
X126721820Y-102904006D01*
X126759915Y-102980197D01*
X126759915Y-103170673D01*
X126721820Y-103284959D01*
X126759915Y-104123054D02*
X125959915Y-104389720D01*
X126759915Y-104656387D01*
X126683724Y-104884959D02*
X126721820Y-104923054D01*
X126759915Y-104999244D01*
X126759915Y-105189720D01*
X126721820Y-105265911D01*
X126683724Y-105304006D01*
X126607534Y-105342101D01*
X126531343Y-105342101D01*
X126417058Y-105304006D01*
X125959915Y-104846863D01*
X125959915Y-105342101D01*
X126036105Y-105684959D02*
X125998010Y-105723054D01*
X125959915Y-105684959D01*
X125998010Y-105646863D01*
X126036105Y-105684959D01*
X125959915Y-105684959D01*
X126759915Y-106218292D02*
X126759915Y-106294482D01*
X126721820Y-106370673D01*
X126683724Y-106408768D01*
X126607534Y-106446863D01*
X126455153Y-106484959D01*
X126264677Y-106484959D01*
X126112296Y-106446863D01*
X126036105Y-106408768D01*
X125998010Y-106370673D01*
X125959915Y-106294482D01*
X125959915Y-106218292D01*
X125998010Y-106142101D01*
X126036105Y-106104006D01*
X126112296Y-106065911D01*
X126264677Y-106027816D01*
X126455153Y-106027816D01*
X126607534Y-106065911D01*
X126683724Y-106104006D01*
X126721820Y-106142101D01*
X126759915Y-106218292D01*
X125332459Y-96888780D02*
X125370554Y-96812590D01*
X125370554Y-96660209D01*
X125332459Y-96584019D01*
X125256268Y-96507828D01*
X125180078Y-96469733D01*
X125027697Y-96469733D01*
X124951506Y-96507828D01*
X124875316Y-96584019D01*
X124837220Y-96660209D01*
X124837220Y-96812590D01*
X124875316Y-96888780D01*
X125637220Y-96736400D02*
X125599125Y-96545923D01*
X125484840Y-96355447D01*
X125294363Y-96241161D01*
X125103887Y-96203066D01*
X124913411Y-96241161D01*
X124722935Y-96355447D01*
X124608649Y-96545923D01*
X124570554Y-96736400D01*
X124608649Y-96926876D01*
X124722935Y-97117352D01*
X124913411Y-97231638D01*
X125103887Y-97269733D01*
X125294363Y-97231638D01*
X125484840Y-97117352D01*
X125599125Y-96926876D01*
X125637220Y-96736400D01*
X124722935Y-97612590D02*
X125522935Y-97612590D01*
X124951506Y-97879257D01*
X125522935Y-98145923D01*
X124722935Y-98145923D01*
X125256268Y-98450685D02*
X124722935Y-98641161D01*
X125256268Y-98831638D02*
X124722935Y-98641161D01*
X124532459Y-98564971D01*
X124494363Y-98526876D01*
X124456268Y-98450685D01*
X124761030Y-99098304D02*
X124722935Y-99174495D01*
X124722935Y-99326876D01*
X124761030Y-99403066D01*
X124837220Y-99441161D01*
X124875316Y-99441161D01*
X124951506Y-99403066D01*
X124989601Y-99326876D01*
X124989601Y-99212590D01*
X125027697Y-99136400D01*
X125103887Y-99098304D01*
X125141982Y-99098304D01*
X125218173Y-99136400D01*
X125256268Y-99212590D01*
X125256268Y-99326876D01*
X125218173Y-99403066D01*
X124761030Y-100088780D02*
X124722935Y-100012590D01*
X124722935Y-99860209D01*
X124761030Y-99784019D01*
X124837220Y-99745923D01*
X125141982Y-99745923D01*
X125218173Y-99784019D01*
X125256268Y-99860209D01*
X125256268Y-100012590D01*
X125218173Y-100088780D01*
X125141982Y-100126876D01*
X125065792Y-100126876D01*
X124989601Y-99745923D01*
X125256268Y-100469733D02*
X124722935Y-100469733D01*
X125180078Y-100469733D02*
X125218173Y-100507828D01*
X125256268Y-100584019D01*
X125256268Y-100698304D01*
X125218173Y-100774495D01*
X125141982Y-100812590D01*
X124722935Y-100812590D01*
X124761030Y-101155447D02*
X124722935Y-101231638D01*
X124722935Y-101384019D01*
X124761030Y-101460209D01*
X124837220Y-101498304D01*
X124875316Y-101498304D01*
X124951506Y-101460209D01*
X124989601Y-101384019D01*
X124989601Y-101269733D01*
X125027697Y-101193542D01*
X125103887Y-101155447D01*
X125141982Y-101155447D01*
X125218173Y-101193542D01*
X125256268Y-101269733D01*
X125256268Y-101384019D01*
X125218173Y-101460209D01*
X124722935Y-101955447D02*
X124761030Y-101879257D01*
X124799125Y-101841161D01*
X124875316Y-101803066D01*
X125103887Y-101803066D01*
X125180078Y-101841161D01*
X125218173Y-101879257D01*
X125256268Y-101955447D01*
X125256268Y-102069733D01*
X125218173Y-102145923D01*
X125180078Y-102184019D01*
X125103887Y-102222114D01*
X124875316Y-102222114D01*
X124799125Y-102184019D01*
X124761030Y-102145923D01*
X124722935Y-102069733D01*
X124722935Y-101955447D01*
X124722935Y-102564971D02*
X125256268Y-102564971D01*
X125103887Y-102564971D02*
X125180078Y-102603066D01*
X125218173Y-102641161D01*
X125256268Y-102717352D01*
X125256268Y-102793542D01*
X124799125Y-103060209D02*
X124761030Y-103098304D01*
X124722935Y-103060209D01*
X124761030Y-103022114D01*
X124799125Y-103060209D01*
X124722935Y-103060209D01*
X125256268Y-103441161D02*
X124456268Y-103441161D01*
X125218173Y-103441161D02*
X125256268Y-103517352D01*
X125256268Y-103669733D01*
X125218173Y-103745923D01*
X125180078Y-103784019D01*
X125103887Y-103822114D01*
X124875316Y-103822114D01*
X124799125Y-103784019D01*
X124761030Y-103745923D01*
X124722935Y-103669733D01*
X124722935Y-103517352D01*
X124761030Y-103441161D01*
X125256268Y-104507828D02*
X124722935Y-104507828D01*
X125256268Y-104164971D02*
X124837220Y-104164971D01*
X124761030Y-104203066D01*
X124722935Y-104279257D01*
X124722935Y-104393542D01*
X124761030Y-104469733D01*
X124799125Y-104507828D01*
X124722935Y-104888780D02*
X125522935Y-104888780D01*
X125218173Y-104888780D02*
X125256268Y-104964971D01*
X125256268Y-105117352D01*
X125218173Y-105193542D01*
X125180078Y-105231638D01*
X125103887Y-105269733D01*
X124875316Y-105269733D01*
X124799125Y-105231638D01*
X124761030Y-105193542D01*
X124722935Y-105117352D01*
X124722935Y-104964971D01*
X124761030Y-104888780D01*
D11*
G36*
X134116035Y-121444381D02*
X134149692Y-121452694D01*
X134149694Y-121452695D01*
X134181083Y-121467415D01*
X134208993Y-121487974D01*
X134232360Y-121513586D01*
X134250280Y-121543263D01*
X134250281Y-121543265D01*
X134259306Y-121568231D01*
X134262068Y-121575872D01*
X134267266Y-121610142D01*
X134267266Y-121610146D01*
X134265679Y-121644778D01*
X134257365Y-121678435D01*
X134257363Y-121678439D01*
X134242645Y-121709824D01*
X134222085Y-121737737D01*
X134196474Y-121761103D01*
X134166796Y-121779023D01*
X134166794Y-121779024D01*
X134134190Y-121790810D01*
X134134188Y-121790810D01*
X134134186Y-121790811D01*
X134108507Y-121794706D01*
X134108503Y-121794706D01*
X134108498Y-121794707D01*
X133421395Y-121830717D01*
X133342268Y-121834864D01*
X133342267Y-121834864D01*
X133316310Y-121833673D01*
X133282652Y-121825360D01*
X133278586Y-121823453D01*
X133251263Y-121810640D01*
X133223351Y-121790080D01*
X133199984Y-121764468D01*
X133182064Y-121734791D01*
X133177490Y-121722137D01*
X133170277Y-121702185D01*
X133170276Y-121702182D01*
X133165078Y-121667912D01*
X133166666Y-121633277D01*
X133168708Y-121625010D01*
X133174979Y-121599619D01*
X133176162Y-121597096D01*
X133189699Y-121568230D01*
X133210259Y-121540318D01*
X133235871Y-121516951D01*
X133265548Y-121499031D01*
X133265549Y-121499031D01*
X133265550Y-121499030D01*
X133298154Y-121487244D01*
X133323846Y-121483347D01*
X134055374Y-121445009D01*
X134090075Y-121443190D01*
X134090076Y-121443190D01*
X134116035Y-121444381D01*
X134116035Y-121444381D01*
G37*
G36*
X129394384Y-120956255D02*
X129411747Y-120962361D01*
X129462822Y-120986177D01*
X129462823Y-120986178D01*
X130234091Y-121345826D01*
X130234098Y-121345830D01*
X130285169Y-121369645D01*
X130301001Y-121379017D01*
X130310110Y-121387183D01*
X130317452Y-121396971D01*
X130322742Y-121407999D01*
X130325778Y-121419846D01*
X130326445Y-121432059D01*
X130324716Y-121444169D01*
X130318613Y-121461524D01*
X130294798Y-121512595D01*
X130294794Y-121512607D01*
X130188716Y-121740091D01*
X130188712Y-121740097D01*
X130164893Y-121791178D01*
X130155526Y-121807002D01*
X130147358Y-121816113D01*
X130137574Y-121823453D01*
X130126546Y-121828742D01*
X130114697Y-121831779D01*
X130102484Y-121832446D01*
X130090374Y-121830717D01*
X130073011Y-121824611D01*
X130021935Y-121800794D01*
X129250667Y-121441146D01*
X129250660Y-121441142D01*
X129199589Y-121417327D01*
X129183757Y-121407955D01*
X129174648Y-121399789D01*
X129167306Y-121390001D01*
X129162016Y-121378973D01*
X129158980Y-121367126D01*
X129158313Y-121354913D01*
X129160042Y-121342803D01*
X129166145Y-121325448D01*
X129189960Y-121274377D01*
X129189964Y-121274365D01*
X129296042Y-121046881D01*
X129296046Y-121046875D01*
X129319865Y-120995794D01*
X129329232Y-120979970D01*
X129337400Y-120970859D01*
X129347184Y-120963519D01*
X129358212Y-120958230D01*
X129370061Y-120955193D01*
X129382274Y-120954526D01*
X129394384Y-120956255D01*
X129394384Y-120956255D01*
G37*
G36*
X136267003Y-121331654D02*
X136300660Y-121339967D01*
X136300662Y-121339968D01*
X136332051Y-121354688D01*
X136359961Y-121375247D01*
X136383328Y-121400859D01*
X136400087Y-121428613D01*
X136401249Y-121430538D01*
X136410274Y-121455504D01*
X136413036Y-121463145D01*
X136418234Y-121497415D01*
X136418234Y-121497419D01*
X136416647Y-121532051D01*
X136408333Y-121565708D01*
X136408331Y-121565712D01*
X136393613Y-121597097D01*
X136373053Y-121625010D01*
X136347442Y-121648376D01*
X136317764Y-121666296D01*
X136317762Y-121666297D01*
X136285158Y-121678083D01*
X136285156Y-121678083D01*
X136285154Y-121678084D01*
X136259475Y-121681979D01*
X136259471Y-121681979D01*
X136259466Y-121681980D01*
X135562386Y-121718513D01*
X135493236Y-121722137D01*
X135493235Y-121722137D01*
X135467278Y-121720946D01*
X135433620Y-121712633D01*
X135431173Y-121711485D01*
X135402231Y-121697913D01*
X135374319Y-121677353D01*
X135350952Y-121651741D01*
X135333032Y-121622064D01*
X135328724Y-121610146D01*
X135321245Y-121589458D01*
X135321244Y-121589455D01*
X135316046Y-121555185D01*
X135316593Y-121543265D01*
X135317634Y-121520550D01*
X135325947Y-121486892D01*
X135327610Y-121483347D01*
X135340667Y-121455503D01*
X135361227Y-121427591D01*
X135386839Y-121404224D01*
X135416516Y-121386304D01*
X135416517Y-121386304D01*
X135416518Y-121386303D01*
X135449122Y-121374517D01*
X135474814Y-121370620D01*
X136206342Y-121332282D01*
X136241043Y-121330463D01*
X136241044Y-121330463D01*
X136267003Y-121331654D01*
X136267003Y-121331654D01*
G37*
G36*
X139290709Y-119227745D02*
X139448516Y-119524538D01*
X139729260Y-120052541D01*
X139787944Y-120162909D01*
X139996537Y-120555216D01*
X140058829Y-120672370D01*
X140146968Y-120838136D01*
X140305301Y-121135917D01*
X140305301Y-121135918D01*
X139508882Y-121559381D01*
X139438808Y-121427591D01*
X139296681Y-121160289D01*
X139237997Y-121049920D01*
X138957253Y-120521917D01*
X138887785Y-120391266D01*
X138686368Y-120012457D01*
X138627684Y-119902088D01*
X138593413Y-119837633D01*
X138381212Y-119438541D01*
X138381212Y-119438540D01*
X139177631Y-119015077D01*
X139290709Y-119227745D01*
X139290709Y-119227745D01*
G37*
G36*
X134082017Y-120795272D02*
X134115674Y-120803585D01*
X134115676Y-120803586D01*
X134147065Y-120818306D01*
X134174975Y-120838865D01*
X134198342Y-120864477D01*
X134216262Y-120894154D01*
X134216263Y-120894156D01*
X134225288Y-120919122D01*
X134228050Y-120926763D01*
X134233248Y-120961033D01*
X134233248Y-120961037D01*
X134231661Y-120995669D01*
X134223347Y-121029326D01*
X134223345Y-121029330D01*
X134208627Y-121060715D01*
X134188067Y-121088628D01*
X134162456Y-121111994D01*
X134132778Y-121129914D01*
X134132776Y-121129915D01*
X134100172Y-121141701D01*
X134100170Y-121141701D01*
X134100168Y-121141702D01*
X134074489Y-121145597D01*
X134074485Y-121145597D01*
X134074480Y-121145598D01*
X133377400Y-121182131D01*
X133308250Y-121185755D01*
X133308249Y-121185755D01*
X133282292Y-121184564D01*
X133248634Y-121176251D01*
X133246187Y-121175103D01*
X133217245Y-121161531D01*
X133189333Y-121140971D01*
X133165966Y-121115359D01*
X133148046Y-121085682D01*
X133143472Y-121073028D01*
X133136259Y-121053076D01*
X133136258Y-121053073D01*
X133131060Y-121018803D01*
X133132648Y-120984168D01*
X133134695Y-120975881D01*
X133140961Y-120950510D01*
X133142144Y-120947987D01*
X133155681Y-120919121D01*
X133176241Y-120891209D01*
X133201853Y-120867842D01*
X133231530Y-120849922D01*
X133231531Y-120849922D01*
X133231532Y-120849921D01*
X133264136Y-120838135D01*
X133289828Y-120834238D01*
X134021356Y-120795900D01*
X134056057Y-120794081D01*
X134056058Y-120794081D01*
X134082017Y-120795272D01*
X134082017Y-120795272D01*
G37*
G36*
X136232985Y-120682545D02*
X136266642Y-120690858D01*
X136266644Y-120690859D01*
X136298033Y-120705579D01*
X136325943Y-120726138D01*
X136349310Y-120751750D01*
X136367230Y-120781427D01*
X136367231Y-120781429D01*
X136376256Y-120806395D01*
X136379018Y-120814036D01*
X136384216Y-120848306D01*
X136384216Y-120848310D01*
X136382629Y-120882942D01*
X136374315Y-120916599D01*
X136374313Y-120916603D01*
X136359595Y-120947988D01*
X136339035Y-120975901D01*
X136313424Y-120999267D01*
X136283746Y-121017187D01*
X136283744Y-121017188D01*
X136251140Y-121028974D01*
X136251138Y-121028974D01*
X136251136Y-121028975D01*
X136225457Y-121032870D01*
X136225453Y-121032870D01*
X136225448Y-121032871D01*
X135528368Y-121069404D01*
X135459218Y-121073028D01*
X135459217Y-121073028D01*
X135433260Y-121071837D01*
X135399602Y-121063524D01*
X135397155Y-121062376D01*
X135368213Y-121048804D01*
X135340301Y-121028244D01*
X135316934Y-121002632D01*
X135299014Y-120972955D01*
X135294706Y-120961037D01*
X135287227Y-120940349D01*
X135287226Y-120940346D01*
X135282028Y-120906076D01*
X135282575Y-120894156D01*
X135283616Y-120871441D01*
X135291929Y-120837783D01*
X135293805Y-120833783D01*
X135306649Y-120806394D01*
X135327209Y-120778482D01*
X135352821Y-120755115D01*
X135382498Y-120737195D01*
X135382499Y-120737195D01*
X135382500Y-120737194D01*
X135415104Y-120725408D01*
X135440796Y-120721511D01*
X136172324Y-120683173D01*
X136207025Y-120681354D01*
X136207026Y-120681354D01*
X136232985Y-120682545D01*
X136232985Y-120682545D01*
G37*
G36*
X129817002Y-120049947D02*
X129834365Y-120056053D01*
X129885440Y-120079869D01*
X129885441Y-120079870D01*
X130656709Y-120439518D01*
X130656716Y-120439522D01*
X130707787Y-120463337D01*
X130723619Y-120472709D01*
X130732728Y-120480875D01*
X130740070Y-120490663D01*
X130745360Y-120501691D01*
X130748396Y-120513538D01*
X130749063Y-120525751D01*
X130747334Y-120537861D01*
X130741231Y-120555216D01*
X130717416Y-120606287D01*
X130717412Y-120606299D01*
X130611334Y-120833783D01*
X130611330Y-120833789D01*
X130587511Y-120884870D01*
X130578144Y-120900694D01*
X130569976Y-120909805D01*
X130560192Y-120917145D01*
X130549164Y-120922434D01*
X130537315Y-120925471D01*
X130525102Y-120926138D01*
X130512992Y-120924409D01*
X130495629Y-120918303D01*
X130444553Y-120894486D01*
X129673285Y-120534838D01*
X129673278Y-120534834D01*
X129622207Y-120511019D01*
X129606375Y-120501647D01*
X129597266Y-120493481D01*
X129589924Y-120483693D01*
X129584634Y-120472665D01*
X129581598Y-120460818D01*
X129580931Y-120448605D01*
X129582660Y-120436495D01*
X129588763Y-120419140D01*
X129612578Y-120368069D01*
X129612582Y-120368057D01*
X129718660Y-120140573D01*
X129718664Y-120140567D01*
X129742483Y-120089486D01*
X129751850Y-120073662D01*
X129760018Y-120064551D01*
X129769802Y-120057211D01*
X129780830Y-120051922D01*
X129792679Y-120048885D01*
X129804892Y-120048218D01*
X129817002Y-120049947D01*
X129817002Y-120049947D01*
G37*
G36*
X134047998Y-120146163D02*
X134081655Y-120154476D01*
X134081657Y-120154477D01*
X134113046Y-120169197D01*
X134140956Y-120189756D01*
X134164323Y-120215368D01*
X134182243Y-120245045D01*
X134182244Y-120245047D01*
X134191269Y-120270013D01*
X134194031Y-120277654D01*
X134199229Y-120311924D01*
X134199229Y-120311928D01*
X134197642Y-120346560D01*
X134189328Y-120380217D01*
X134189326Y-120380221D01*
X134174608Y-120411606D01*
X134154048Y-120439519D01*
X134128437Y-120462885D01*
X134098759Y-120480805D01*
X134098757Y-120480806D01*
X134066153Y-120492592D01*
X134066151Y-120492592D01*
X134066149Y-120492593D01*
X134040470Y-120496488D01*
X134040466Y-120496488D01*
X134040461Y-120496489D01*
X133343381Y-120533022D01*
X133274231Y-120536646D01*
X133274230Y-120536646D01*
X133248273Y-120535455D01*
X133214615Y-120527142D01*
X133211649Y-120525751D01*
X133183226Y-120512422D01*
X133155314Y-120491862D01*
X133131947Y-120466250D01*
X133114027Y-120436573D01*
X133106017Y-120414414D01*
X133102240Y-120403967D01*
X133102239Y-120403964D01*
X133097041Y-120369694D01*
X133097783Y-120353521D01*
X133098629Y-120335059D01*
X133106942Y-120301401D01*
X133111709Y-120291236D01*
X133121662Y-120270012D01*
X133142222Y-120242100D01*
X133167834Y-120218733D01*
X133197511Y-120200813D01*
X133197512Y-120200813D01*
X133197513Y-120200812D01*
X133230117Y-120189026D01*
X133255809Y-120185129D01*
X133987337Y-120146791D01*
X134022038Y-120144972D01*
X134022039Y-120144972D01*
X134047998Y-120146163D01*
X134047998Y-120146163D01*
G37*
G36*
X126584830Y-119646138D02*
X126602193Y-119652244D01*
X126653268Y-119676060D01*
X126653269Y-119676061D01*
X127424537Y-120035709D01*
X127424544Y-120035713D01*
X127475615Y-120059528D01*
X127491447Y-120068900D01*
X127500556Y-120077066D01*
X127507898Y-120086854D01*
X127513188Y-120097882D01*
X127516224Y-120109729D01*
X127516891Y-120121942D01*
X127515162Y-120134052D01*
X127509059Y-120151407D01*
X127485244Y-120202478D01*
X127485240Y-120202490D01*
X127379162Y-120429974D01*
X127379158Y-120429980D01*
X127355339Y-120481061D01*
X127345972Y-120496885D01*
X127337804Y-120505996D01*
X127328020Y-120513336D01*
X127316992Y-120518625D01*
X127305143Y-120521662D01*
X127292930Y-120522329D01*
X127280820Y-120520600D01*
X127263457Y-120514494D01*
X127212351Y-120490663D01*
X126441113Y-120131029D01*
X126441106Y-120131025D01*
X126390035Y-120107210D01*
X126374203Y-120097838D01*
X126365094Y-120089672D01*
X126357752Y-120079884D01*
X126352462Y-120068856D01*
X126349426Y-120057009D01*
X126348759Y-120044796D01*
X126350488Y-120032686D01*
X126356591Y-120015331D01*
X126380406Y-119964260D01*
X126380410Y-119964248D01*
X126486488Y-119736764D01*
X126486492Y-119736758D01*
X126510311Y-119685677D01*
X126519678Y-119669853D01*
X126527846Y-119660742D01*
X126537630Y-119653402D01*
X126548658Y-119648113D01*
X126560507Y-119645076D01*
X126572720Y-119644409D01*
X126584830Y-119646138D01*
X126584830Y-119646138D01*
G37*
G36*
X141462085Y-118305881D02*
X141523443Y-118421280D01*
X141804187Y-118949283D01*
X141862871Y-119059651D01*
X142053759Y-119418659D01*
X142133756Y-119569112D01*
X142191005Y-119676783D01*
X142380228Y-120032659D01*
X142380228Y-120032660D01*
X141583809Y-120456123D01*
X141575336Y-120440188D01*
X141371608Y-120057031D01*
X141312924Y-119946662D01*
X141032180Y-119418659D01*
X140941768Y-119248618D01*
X140761295Y-118909199D01*
X140702611Y-118798830D01*
X140668340Y-118734375D01*
X140655228Y-118709714D01*
X140536136Y-118485735D01*
X140456139Y-118335283D01*
X140456139Y-118335282D01*
X141252558Y-117911819D01*
X141462085Y-118305881D01*
X141462085Y-118305881D01*
G37*
G36*
X136198966Y-120033435D02*
X136232623Y-120041748D01*
X136232625Y-120041749D01*
X136264014Y-120056469D01*
X136291924Y-120077028D01*
X136315291Y-120102640D01*
X136332433Y-120131029D01*
X136333212Y-120132319D01*
X136342237Y-120157285D01*
X136344999Y-120164926D01*
X136350197Y-120199196D01*
X136350197Y-120199200D01*
X136348610Y-120233832D01*
X136340296Y-120267489D01*
X136340294Y-120267493D01*
X136325576Y-120298878D01*
X136305016Y-120326791D01*
X136279405Y-120350157D01*
X136249760Y-120368057D01*
X136249725Y-120368078D01*
X136217121Y-120379864D01*
X136217119Y-120379864D01*
X136217117Y-120379865D01*
X136191438Y-120383760D01*
X136191434Y-120383760D01*
X136191429Y-120383761D01*
X135516366Y-120419140D01*
X135425199Y-120423918D01*
X135425198Y-120423918D01*
X135399241Y-120422727D01*
X135365583Y-120414414D01*
X135363136Y-120413266D01*
X135334194Y-120399694D01*
X135306282Y-120379134D01*
X135282915Y-120353522D01*
X135264995Y-120323845D01*
X135260686Y-120311924D01*
X135253208Y-120291239D01*
X135253207Y-120291236D01*
X135248009Y-120256966D01*
X135248556Y-120245045D01*
X135249597Y-120222331D01*
X135257910Y-120188673D01*
X135262315Y-120179281D01*
X135272630Y-120157284D01*
X135293190Y-120129372D01*
X135318802Y-120106005D01*
X135348479Y-120088085D01*
X135348480Y-120088085D01*
X135348481Y-120088084D01*
X135381085Y-120076298D01*
X135406777Y-120072401D01*
X136138305Y-120034063D01*
X136173006Y-120032244D01*
X136173007Y-120032244D01*
X136198966Y-120033435D01*
X136198966Y-120033435D01*
G37*
G36*
X130239620Y-119143640D02*
X130256983Y-119149746D01*
X130308058Y-119173562D01*
X130308059Y-119173563D01*
X131079327Y-119533211D01*
X131079334Y-119533215D01*
X131130405Y-119557030D01*
X131146237Y-119566402D01*
X131155346Y-119574568D01*
X131162688Y-119584356D01*
X131167978Y-119595384D01*
X131171014Y-119607231D01*
X131171681Y-119619444D01*
X131169952Y-119631554D01*
X131163849Y-119648909D01*
X131140034Y-119699980D01*
X131140030Y-119699992D01*
X131033952Y-119927476D01*
X131033948Y-119927482D01*
X131010129Y-119978563D01*
X131000762Y-119994387D01*
X130992594Y-120003498D01*
X130982810Y-120010838D01*
X130971782Y-120016127D01*
X130959933Y-120019164D01*
X130947720Y-120019831D01*
X130935610Y-120018102D01*
X130918247Y-120011996D01*
X130867171Y-119988179D01*
X130095903Y-119628531D01*
X130095896Y-119628527D01*
X130044825Y-119604712D01*
X130028993Y-119595340D01*
X130019884Y-119587174D01*
X130012542Y-119577386D01*
X130007252Y-119566358D01*
X130004216Y-119554511D01*
X130003549Y-119542298D01*
X130005278Y-119530188D01*
X130011381Y-119512833D01*
X130035196Y-119461762D01*
X130035200Y-119461750D01*
X130141278Y-119234266D01*
X130141282Y-119234260D01*
X130165101Y-119183179D01*
X130174468Y-119167355D01*
X130182636Y-119158244D01*
X130192420Y-119150904D01*
X130203448Y-119145615D01*
X130215297Y-119142578D01*
X130227510Y-119141911D01*
X130239620Y-119143640D01*
X130239620Y-119143640D01*
G37*
G36*
X127007448Y-118739831D02*
X127024811Y-118745937D01*
X127075886Y-118769753D01*
X127075887Y-118769754D01*
X127847155Y-119129402D01*
X127847162Y-119129406D01*
X127898233Y-119153221D01*
X127914065Y-119162593D01*
X127923174Y-119170759D01*
X127930516Y-119180547D01*
X127935806Y-119191575D01*
X127938842Y-119203422D01*
X127939509Y-119215635D01*
X127937780Y-119227745D01*
X127931677Y-119245100D01*
X127907862Y-119296171D01*
X127907858Y-119296183D01*
X127801780Y-119523667D01*
X127801776Y-119523673D01*
X127777957Y-119574754D01*
X127768590Y-119590578D01*
X127760422Y-119599689D01*
X127750638Y-119607029D01*
X127739610Y-119612318D01*
X127727761Y-119615355D01*
X127715548Y-119616022D01*
X127703438Y-119614293D01*
X127686075Y-119608187D01*
X127634969Y-119584356D01*
X126863731Y-119224722D01*
X126863724Y-119224718D01*
X126812653Y-119200903D01*
X126796821Y-119191531D01*
X126787712Y-119183365D01*
X126780370Y-119173577D01*
X126775080Y-119162549D01*
X126772044Y-119150702D01*
X126771377Y-119138489D01*
X126773106Y-119126379D01*
X126779209Y-119109024D01*
X126803024Y-119057953D01*
X126803028Y-119057941D01*
X126909106Y-118830457D01*
X126909110Y-118830451D01*
X126932929Y-118779370D01*
X126942296Y-118763546D01*
X126950464Y-118754435D01*
X126960248Y-118747095D01*
X126971276Y-118741806D01*
X126983125Y-118738769D01*
X126995338Y-118738102D01*
X127007448Y-118739831D01*
X127007448Y-118739831D01*
G37*
G36*
X127430066Y-117833523D02*
X127447429Y-117839629D01*
X127498504Y-117863445D01*
X127498505Y-117863446D01*
X128269773Y-118223094D01*
X128269780Y-118223098D01*
X128320851Y-118246913D01*
X128336683Y-118256285D01*
X128345792Y-118264451D01*
X128353134Y-118274239D01*
X128358424Y-118285267D01*
X128361460Y-118297114D01*
X128362127Y-118309327D01*
X128360398Y-118321437D01*
X128354295Y-118338792D01*
X128330480Y-118389863D01*
X128330476Y-118389875D01*
X128224398Y-118617359D01*
X128224394Y-118617365D01*
X128200575Y-118668446D01*
X128191208Y-118684270D01*
X128183040Y-118693381D01*
X128173256Y-118700721D01*
X128162228Y-118706010D01*
X128150379Y-118709047D01*
X128138166Y-118709714D01*
X128126056Y-118707985D01*
X128108693Y-118701879D01*
X128043785Y-118671612D01*
X127286349Y-118318414D01*
X127286342Y-118318410D01*
X127235271Y-118294595D01*
X127219439Y-118285223D01*
X127210330Y-118277057D01*
X127202988Y-118267269D01*
X127197698Y-118256241D01*
X127194662Y-118244394D01*
X127193995Y-118232181D01*
X127195724Y-118220071D01*
X127201827Y-118202716D01*
X127225642Y-118151645D01*
X127225646Y-118151633D01*
X127331724Y-117924149D01*
X127331728Y-117924143D01*
X127355547Y-117873062D01*
X127364914Y-117857238D01*
X127373082Y-117848127D01*
X127382866Y-117840787D01*
X127393894Y-117835498D01*
X127405743Y-117832461D01*
X127417956Y-117831794D01*
X127430066Y-117833523D01*
X127430066Y-117833523D01*
G37*
G36*
X132230240Y-117596900D02*
X131198240Y-117596900D01*
X131198240Y-116514900D01*
X132230240Y-116514900D01*
X132230240Y-117596900D01*
X132230240Y-117596900D01*
G37*
G36*
X130690240Y-117596900D02*
X129658240Y-117596900D01*
X129658240Y-116514900D01*
X130690240Y-116514900D01*
X130690240Y-117596900D01*
X130690240Y-117596900D01*
G37*
G36*
X134436740Y-117596900D02*
X133404740Y-117596900D01*
X133404740Y-116514900D01*
X134436740Y-116514900D01*
X134436740Y-117596900D01*
X134436740Y-117596900D01*
G37*
G36*
X135976740Y-117596900D02*
X134944740Y-117596900D01*
X134944740Y-116514900D01*
X135976740Y-116514900D01*
X135976740Y-117596900D01*
X135976740Y-117596900D01*
G37*
G36*
X139586840Y-117594360D02*
X138554840Y-117594360D01*
X138554840Y-116512360D01*
X139586840Y-116512360D01*
X139586840Y-117594360D01*
X139586840Y-117594360D01*
G37*
G36*
X138046840Y-117594360D02*
X137014840Y-117594360D01*
X137014840Y-116512360D01*
X138046840Y-116512360D01*
X138046840Y-117594360D01*
X138046840Y-117594360D01*
G37*
G36*
X139599540Y-115785880D02*
X138567540Y-115785880D01*
X138567540Y-114703880D01*
X139599540Y-114703880D01*
X139599540Y-115785880D01*
X139599540Y-115785880D01*
G37*
G36*
X138059540Y-115785880D02*
X137027540Y-115785880D01*
X137027540Y-114703880D01*
X138059540Y-114703880D01*
X138059540Y-115785880D01*
X138059540Y-115785880D01*
G37*
G36*
X132256400Y-115765560D02*
X131224400Y-115765560D01*
X131224400Y-114683560D01*
X132256400Y-114683560D01*
X132256400Y-115765560D01*
X132256400Y-115765560D01*
G37*
G36*
X130716400Y-115765560D02*
X129684400Y-115765560D01*
X129684400Y-114683560D01*
X130716400Y-114683560D01*
X130716400Y-115765560D01*
X130716400Y-115765560D01*
G37*
G36*
X135981820Y-115763020D02*
X134949820Y-115763020D01*
X134949820Y-114681020D01*
X135981820Y-114681020D01*
X135981820Y-115763020D01*
X135981820Y-115763020D01*
G37*
G36*
X134441820Y-115763020D02*
X133409820Y-115763020D01*
X133409820Y-114681020D01*
X134441820Y-114681020D01*
X134441820Y-115763020D01*
X134441820Y-115763020D01*
G37*
G36*
X142953433Y-111429825D02*
X143028476Y-111452590D01*
X143038445Y-111455614D01*
X143116794Y-111497493D01*
X143185468Y-111553852D01*
X143241827Y-111622526D01*
X143283706Y-111700875D01*
X143283707Y-111700879D01*
X143309495Y-111785887D01*
X143318202Y-111874300D01*
X143309495Y-111962713D01*
X143286730Y-112037756D01*
X143283706Y-112047725D01*
X143241827Y-112126074D01*
X143185468Y-112194748D01*
X143116794Y-112251107D01*
X143038445Y-112292986D01*
X143028476Y-112296010D01*
X142953433Y-112318775D01*
X142887178Y-112325300D01*
X140642862Y-112325300D01*
X140576607Y-112318775D01*
X140501564Y-112296010D01*
X140491595Y-112292986D01*
X140413246Y-112251107D01*
X140344572Y-112194748D01*
X140288213Y-112126074D01*
X140246334Y-112047725D01*
X140243310Y-112037756D01*
X140220545Y-111962713D01*
X140211838Y-111874300D01*
X140220545Y-111785887D01*
X140246333Y-111700879D01*
X140246334Y-111700875D01*
X140288213Y-111622526D01*
X140344572Y-111553852D01*
X140413246Y-111497493D01*
X140491595Y-111455614D01*
X140501564Y-111452590D01*
X140576607Y-111429825D01*
X140642862Y-111423300D01*
X142887178Y-111423300D01*
X142953433Y-111429825D01*
X142953433Y-111429825D01*
G37*
G36*
X121660464Y-106942210D02*
X121811451Y-106988012D01*
X121950601Y-107062388D01*
X122011589Y-107112439D01*
X122072573Y-107162487D01*
X122072574Y-107162489D01*
X122072576Y-107162490D01*
X122172670Y-107284455D01*
X122247048Y-107423608D01*
X122292850Y-107574595D01*
X122304440Y-107692274D01*
X122304440Y-111270966D01*
X122292850Y-111388645D01*
X122247048Y-111539632D01*
X122172670Y-111678785D01*
X122072573Y-111800753D01*
X121950605Y-111900850D01*
X121811452Y-111975228D01*
X121660465Y-112021030D01*
X121503440Y-112036495D01*
X121346416Y-112021030D01*
X121195429Y-111975228D01*
X121056276Y-111900850D01*
X120934308Y-111800753D01*
X120834211Y-111678785D01*
X120759833Y-111539632D01*
X120714031Y-111388645D01*
X120702441Y-111270966D01*
X120702440Y-107692275D01*
X120714030Y-107574596D01*
X120759832Y-107423609D01*
X120834208Y-107284459D01*
X120934305Y-107162490D01*
X120934307Y-107162487D01*
X120934309Y-107162486D01*
X120934310Y-107162484D01*
X121056275Y-107062390D01*
X121195428Y-106988012D01*
X121346415Y-106942210D01*
X121503440Y-106926745D01*
X121660464Y-106942210D01*
X121660464Y-106942210D01*
G37*
G36*
X147060464Y-106942210D02*
X147211451Y-106988012D01*
X147350601Y-107062388D01*
X147411589Y-107112439D01*
X147472573Y-107162487D01*
X147472574Y-107162489D01*
X147472576Y-107162490D01*
X147572670Y-107284455D01*
X147647048Y-107423608D01*
X147692850Y-107574595D01*
X147704440Y-107692274D01*
X147704440Y-111270966D01*
X147692850Y-111388645D01*
X147647048Y-111539632D01*
X147572670Y-111678785D01*
X147472573Y-111800753D01*
X147350605Y-111900850D01*
X147211452Y-111975228D01*
X147060465Y-112021030D01*
X146903440Y-112036495D01*
X146746416Y-112021030D01*
X146595429Y-111975228D01*
X146456276Y-111900850D01*
X146334308Y-111800753D01*
X146234211Y-111678785D01*
X146159833Y-111539632D01*
X146114031Y-111388645D01*
X146102441Y-111270966D01*
X146102440Y-107692275D01*
X146114030Y-107574596D01*
X146159832Y-107423609D01*
X146234208Y-107284459D01*
X146334305Y-107162490D01*
X146334307Y-107162487D01*
X146334309Y-107162486D01*
X146334310Y-107162484D01*
X146456275Y-107062390D01*
X146595428Y-106988012D01*
X146746415Y-106942210D01*
X146903440Y-106926745D01*
X147060464Y-106942210D01*
X147060464Y-106942210D01*
G37*
G36*
X142930573Y-108889825D02*
X143005616Y-108912590D01*
X143015585Y-108915614D01*
X143093934Y-108957493D01*
X143162608Y-109013852D01*
X143218967Y-109082526D01*
X143260846Y-109160875D01*
X143260847Y-109160879D01*
X143286635Y-109245887D01*
X143295342Y-109334300D01*
X143286635Y-109422713D01*
X143263870Y-109497756D01*
X143260846Y-109507725D01*
X143218967Y-109586074D01*
X143162608Y-109654748D01*
X143093934Y-109711107D01*
X143015585Y-109752986D01*
X143005616Y-109756010D01*
X142930573Y-109778775D01*
X142864318Y-109785300D01*
X140620002Y-109785300D01*
X140553747Y-109778775D01*
X140478704Y-109756010D01*
X140468735Y-109752986D01*
X140390386Y-109711107D01*
X140321712Y-109654748D01*
X140265353Y-109586074D01*
X140223474Y-109507725D01*
X140220450Y-109497756D01*
X140197685Y-109422713D01*
X140188978Y-109334300D01*
X140197685Y-109245887D01*
X140223473Y-109160879D01*
X140223474Y-109160875D01*
X140265353Y-109082526D01*
X140321712Y-109013852D01*
X140390386Y-108957493D01*
X140468735Y-108915614D01*
X140478704Y-108912590D01*
X140553747Y-108889825D01*
X140620002Y-108883300D01*
X142864318Y-108883300D01*
X142930573Y-108889825D01*
X142930573Y-108889825D01*
G37*
G36*
X142930573Y-107619825D02*
X143005616Y-107642590D01*
X143015585Y-107645614D01*
X143093934Y-107687493D01*
X143162608Y-107743852D01*
X143218967Y-107812526D01*
X143260846Y-107890875D01*
X143260847Y-107890879D01*
X143286635Y-107975887D01*
X143295342Y-108064300D01*
X143286635Y-108152713D01*
X143263870Y-108227756D01*
X143260846Y-108237725D01*
X143218967Y-108316074D01*
X143162608Y-108384748D01*
X143093934Y-108441107D01*
X143015585Y-108482986D01*
X143005616Y-108486010D01*
X142930573Y-108508775D01*
X142864318Y-108515300D01*
X140620002Y-108515300D01*
X140553747Y-108508775D01*
X140478704Y-108486010D01*
X140468735Y-108482986D01*
X140390386Y-108441107D01*
X140321712Y-108384748D01*
X140265353Y-108316074D01*
X140223474Y-108237725D01*
X140220450Y-108227756D01*
X140197685Y-108152713D01*
X140188978Y-108064300D01*
X140197685Y-107975887D01*
X140223473Y-107890879D01*
X140223474Y-107890875D01*
X140265353Y-107812526D01*
X140321712Y-107743852D01*
X140390386Y-107687493D01*
X140468735Y-107645614D01*
X140478704Y-107642590D01*
X140553747Y-107619825D01*
X140620002Y-107613300D01*
X142864318Y-107613300D01*
X142930573Y-107619825D01*
X142930573Y-107619825D01*
G37*
G36*
X147365441Y-105336240D02*
X144663441Y-105336240D01*
X144663441Y-103434240D01*
X147365441Y-103434240D01*
X147365441Y-105336240D01*
X147365441Y-105336240D01*
G37*
G36*
X147365439Y-102336240D02*
X144663439Y-102336240D01*
X144663439Y-100434240D01*
X147365439Y-100434240D01*
X147365439Y-102336240D01*
X147365439Y-102336240D01*
G37*
G36*
X142930573Y-98729825D02*
X143005616Y-98752590D01*
X143015585Y-98755614D01*
X143093934Y-98797493D01*
X143162608Y-98853852D01*
X143218967Y-98922526D01*
X143260846Y-99000875D01*
X143260847Y-99000879D01*
X143286635Y-99085887D01*
X143295342Y-99174300D01*
X143286635Y-99262713D01*
X143263870Y-99337756D01*
X143260846Y-99347725D01*
X143218967Y-99426074D01*
X143162608Y-99494748D01*
X143093934Y-99551107D01*
X143015585Y-99592986D01*
X143005616Y-99596010D01*
X142930573Y-99618775D01*
X142864318Y-99625300D01*
X140620002Y-99625300D01*
X140553747Y-99618775D01*
X140478704Y-99596010D01*
X140468735Y-99592986D01*
X140390386Y-99551107D01*
X140321712Y-99494748D01*
X140265353Y-99426074D01*
X140223474Y-99347725D01*
X140220450Y-99337756D01*
X140197685Y-99262713D01*
X140188978Y-99174300D01*
X140197685Y-99085887D01*
X140223473Y-99000879D01*
X140223474Y-99000875D01*
X140265353Y-98922526D01*
X140321712Y-98853852D01*
X140390386Y-98797493D01*
X140468735Y-98755614D01*
X140478704Y-98752590D01*
X140553747Y-98729825D01*
X140620002Y-98723300D01*
X142864318Y-98723300D01*
X142930573Y-98729825D01*
X142930573Y-98729825D01*
G37*
G36*
X123364805Y-97262210D02*
X123515792Y-97308012D01*
X123654945Y-97382390D01*
X123776913Y-97482487D01*
X123877010Y-97604455D01*
X123951388Y-97743608D01*
X123997190Y-97894595D01*
X124012655Y-98051620D01*
X123997190Y-98208645D01*
X123951388Y-98359632D01*
X123877010Y-98498785D01*
X123776913Y-98620753D01*
X123654945Y-98720850D01*
X123515792Y-98795228D01*
X123364805Y-98841030D01*
X123247126Y-98852620D01*
X123168434Y-98852620D01*
X123050755Y-98841030D01*
X122899768Y-98795228D01*
X122760615Y-98720850D01*
X122638647Y-98620753D01*
X122538550Y-98498785D01*
X122464172Y-98359632D01*
X122418370Y-98208645D01*
X122402905Y-98051620D01*
X122418370Y-97894595D01*
X122464172Y-97743608D01*
X122538550Y-97604455D01*
X122638647Y-97482487D01*
X122760615Y-97382390D01*
X122899768Y-97308012D01*
X123050755Y-97262210D01*
X123168434Y-97250620D01*
X123247126Y-97250620D01*
X123364805Y-97262210D01*
X123364805Y-97262210D01*
G37*
G36*
X142930573Y-97459825D02*
X143005276Y-97482487D01*
X143015585Y-97485614D01*
X143093934Y-97527493D01*
X143162608Y-97583852D01*
X143218967Y-97652526D01*
X143260846Y-97730875D01*
X143260847Y-97730879D01*
X143286635Y-97815887D01*
X143295342Y-97904300D01*
X143286635Y-97992713D01*
X143268765Y-98051620D01*
X143260846Y-98077725D01*
X143218967Y-98156074D01*
X143162608Y-98224748D01*
X143093934Y-98281107D01*
X143015585Y-98322986D01*
X143005616Y-98326010D01*
X142930573Y-98348775D01*
X142864318Y-98355300D01*
X140620002Y-98355300D01*
X140553747Y-98348775D01*
X140478704Y-98326010D01*
X140468735Y-98322986D01*
X140390386Y-98281107D01*
X140321712Y-98224748D01*
X140265353Y-98156074D01*
X140223474Y-98077725D01*
X140215555Y-98051620D01*
X140197685Y-97992713D01*
X140188978Y-97904300D01*
X140197685Y-97815887D01*
X140223473Y-97730879D01*
X140223474Y-97730875D01*
X140265353Y-97652526D01*
X140321712Y-97583852D01*
X140390386Y-97527493D01*
X140468735Y-97485614D01*
X140479044Y-97482487D01*
X140553747Y-97459825D01*
X140620002Y-97453300D01*
X142864318Y-97453300D01*
X142930573Y-97459825D01*
X142930573Y-97459825D01*
G37*
G36*
X142893300Y-96480260D02*
X140291300Y-96480260D01*
X140291300Y-94878260D01*
X142893300Y-94878260D01*
X142893300Y-96480260D01*
X142893300Y-96480260D01*
G37*
M02*
