G04 #@! TF.GenerationSoftware,KiCad,Pcbnew,(5.0.2)-1*
G04 #@! TF.CreationDate,2019-07-28T22:47:38+08:00*
G04 #@! TF.ProjectId,I2CS,49324353-2e6b-4696-9361-645f70636258,rev?*
G04 #@! TF.SameCoordinates,Original*
G04 #@! TF.FileFunction,Soldermask,Bot*
G04 #@! TF.FilePolarity,Negative*
%FSLAX46Y46*%
G04 Gerber Fmt 4.6, Leading zero omitted, Abs format (unit mm)*
G04 Created by KiCad (PCBNEW (5.0.2)-1) date 2019-07-28 22:47:38*
%MOMM*%
%LPD*%
G01*
G04 APERTURE LIST*
%ADD10C,0.500000*%
%ADD11C,0.150000*%
%ADD12C,0.100000*%
G04 APERTURE END LIST*
D10*
X130713480Y-114139980D02*
X137416540Y-114139980D01*
D11*
X120133055Y-111680798D02*
X119561626Y-111680798D01*
X119447340Y-111718893D01*
X119371150Y-111795083D01*
X119333055Y-111909369D01*
X119333055Y-111985560D01*
X119333055Y-110918893D02*
X119333055Y-111299845D01*
X120133055Y-111299845D01*
X119409245Y-110195083D02*
X119371150Y-110233179D01*
X119333055Y-110347464D01*
X119333055Y-110423655D01*
X119371150Y-110537940D01*
X119447340Y-110614131D01*
X119523531Y-110652226D01*
X119675912Y-110690321D01*
X119790198Y-110690321D01*
X119942579Y-110652226D01*
X120018769Y-110614131D01*
X120094960Y-110537940D01*
X120133055Y-110423655D01*
X120133055Y-110347464D01*
X120094960Y-110233179D01*
X120056864Y-110195083D01*
X120133055Y-109623655D02*
X119561626Y-109623655D01*
X119447340Y-109661750D01*
X119371150Y-109737940D01*
X119333055Y-109852226D01*
X119333055Y-109928417D01*
X119333055Y-108861750D02*
X119333055Y-109242702D01*
X120133055Y-109242702D01*
X119409245Y-108137940D02*
X119371150Y-108176036D01*
X119333055Y-108290321D01*
X119333055Y-108366512D01*
X119371150Y-108480798D01*
X119447340Y-108556988D01*
X119523531Y-108595083D01*
X119675912Y-108633179D01*
X119790198Y-108633179D01*
X119942579Y-108595083D01*
X120018769Y-108556988D01*
X120094960Y-108480798D01*
X120133055Y-108366512D01*
X120133055Y-108290321D01*
X120094960Y-108176036D01*
X120056864Y-108137940D01*
X120133055Y-107566512D02*
X119561626Y-107566512D01*
X119447340Y-107604607D01*
X119371150Y-107680798D01*
X119333055Y-107795083D01*
X119333055Y-107871274D01*
X119333055Y-106804607D02*
X119333055Y-107185560D01*
X120133055Y-107185560D01*
X119409245Y-106080798D02*
X119371150Y-106118893D01*
X119333055Y-106233179D01*
X119333055Y-106309369D01*
X119371150Y-106423655D01*
X119447340Y-106499845D01*
X119523531Y-106537940D01*
X119675912Y-106576036D01*
X119790198Y-106576036D01*
X119942579Y-106537940D01*
X120018769Y-106499845D01*
X120094960Y-106423655D01*
X120133055Y-106309369D01*
X120133055Y-106233179D01*
X120094960Y-106118893D01*
X120056864Y-106080798D01*
X120133055Y-105509369D02*
X119561626Y-105509369D01*
X119447340Y-105547464D01*
X119371150Y-105623655D01*
X119333055Y-105737940D01*
X119333055Y-105814131D01*
X119333055Y-104747464D02*
X119333055Y-105128417D01*
X120133055Y-105128417D01*
X119409245Y-104023655D02*
X119371150Y-104061750D01*
X119333055Y-104176036D01*
X119333055Y-104252226D01*
X119371150Y-104366512D01*
X119447340Y-104442702D01*
X119523531Y-104480798D01*
X119675912Y-104518893D01*
X119790198Y-104518893D01*
X119942579Y-104480798D01*
X120018769Y-104442702D01*
X120094960Y-104366512D01*
X120133055Y-104252226D01*
X120133055Y-104176036D01*
X120094960Y-104061750D01*
X120056864Y-104023655D01*
D12*
G36*
X121660464Y-106942210D02*
X121811451Y-106988012D01*
X121950601Y-107062388D01*
X122011589Y-107112439D01*
X122072573Y-107162487D01*
X122072574Y-107162489D01*
X122072576Y-107162490D01*
X122172670Y-107284455D01*
X122247048Y-107423608D01*
X122292850Y-107574595D01*
X122304440Y-107692274D01*
X122304440Y-111270966D01*
X122292850Y-111388645D01*
X122247048Y-111539632D01*
X122172670Y-111678785D01*
X122072573Y-111800753D01*
X121950605Y-111900850D01*
X121811452Y-111975228D01*
X121660465Y-112021030D01*
X121503440Y-112036495D01*
X121346416Y-112021030D01*
X121195429Y-111975228D01*
X121056276Y-111900850D01*
X120934308Y-111800753D01*
X120834211Y-111678785D01*
X120759833Y-111539632D01*
X120714031Y-111388645D01*
X120702441Y-111270966D01*
X120702440Y-107692275D01*
X120714030Y-107574596D01*
X120759832Y-107423609D01*
X120834208Y-107284459D01*
X120934305Y-107162490D01*
X120934307Y-107162487D01*
X120934309Y-107162486D01*
X120934310Y-107162484D01*
X121056275Y-107062390D01*
X121195428Y-106988012D01*
X121346415Y-106942210D01*
X121503440Y-106926745D01*
X121660464Y-106942210D01*
X121660464Y-106942210D01*
G37*
G36*
X147060464Y-106942210D02*
X147211451Y-106988012D01*
X147350601Y-107062388D01*
X147411589Y-107112439D01*
X147472573Y-107162487D01*
X147472574Y-107162489D01*
X147472576Y-107162490D01*
X147572670Y-107284455D01*
X147647048Y-107423608D01*
X147692850Y-107574595D01*
X147704440Y-107692274D01*
X147704440Y-111270966D01*
X147692850Y-111388645D01*
X147647048Y-111539632D01*
X147572670Y-111678785D01*
X147472573Y-111800753D01*
X147350605Y-111900850D01*
X147211452Y-111975228D01*
X147060465Y-112021030D01*
X146903440Y-112036495D01*
X146746416Y-112021030D01*
X146595429Y-111975228D01*
X146456276Y-111900850D01*
X146334308Y-111800753D01*
X146234211Y-111678785D01*
X146159833Y-111539632D01*
X146114031Y-111388645D01*
X146102441Y-111270966D01*
X146102440Y-107692275D01*
X146114030Y-107574596D01*
X146159832Y-107423609D01*
X146234208Y-107284459D01*
X146334305Y-107162490D01*
X146334307Y-107162487D01*
X146334309Y-107162486D01*
X146334310Y-107162484D01*
X146456275Y-107062390D01*
X146595428Y-106988012D01*
X146746415Y-106942210D01*
X146903440Y-106926745D01*
X147060464Y-106942210D01*
X147060464Y-106942210D01*
G37*
G36*
X142279889Y-101527622D02*
X142474799Y-101586747D01*
X142572255Y-101616310D01*
X142670530Y-101668840D01*
X142841698Y-101760331D01*
X143077869Y-101954151D01*
X143271689Y-102190322D01*
X143363180Y-102361490D01*
X143415710Y-102459765D01*
X143415710Y-102459766D01*
X143504398Y-102752131D01*
X143526840Y-102979990D01*
X143526840Y-105132370D01*
X143504398Y-105360229D01*
X143445273Y-105555139D01*
X143415710Y-105652595D01*
X143363180Y-105750870D01*
X143271689Y-105922038D01*
X143271687Y-105922040D01*
X143077872Y-106158206D01*
X143077870Y-106158207D01*
X143077869Y-106158209D01*
X142841697Y-106352029D01*
X142706975Y-106424039D01*
X142572254Y-106496050D01*
X142474798Y-106525613D01*
X142279888Y-106584738D01*
X141975840Y-106614684D01*
X141671791Y-106584738D01*
X141476881Y-106525613D01*
X141379425Y-106496050D01*
X141281150Y-106443520D01*
X141109982Y-106352029D01*
X141015514Y-106274501D01*
X140873814Y-106158212D01*
X140873813Y-106158210D01*
X140873811Y-106158209D01*
X140679991Y-105922037D01*
X140535971Y-105652595D01*
X140535970Y-105652594D01*
X140506407Y-105555138D01*
X140447282Y-105360228D01*
X140424840Y-105132369D01*
X140424841Y-102979990D01*
X140447283Y-102752131D01*
X140535971Y-102459766D01*
X140535971Y-102459765D01*
X140588501Y-102361490D01*
X140679992Y-102190322D01*
X140873812Y-101954151D01*
X141109983Y-101760331D01*
X141281151Y-101668840D01*
X141379426Y-101616310D01*
X141476882Y-101586747D01*
X141671792Y-101527622D01*
X141975840Y-101497676D01*
X142279889Y-101527622D01*
X142279889Y-101527622D01*
G37*
G36*
X123364805Y-97262210D02*
X123515792Y-97308012D01*
X123654945Y-97382390D01*
X123776913Y-97482487D01*
X123877010Y-97604455D01*
X123951388Y-97743608D01*
X123997190Y-97894595D01*
X124012655Y-98051620D01*
X123997190Y-98208645D01*
X123951388Y-98359632D01*
X123877010Y-98498785D01*
X123776913Y-98620753D01*
X123654945Y-98720850D01*
X123515792Y-98795228D01*
X123364805Y-98841030D01*
X123247126Y-98852620D01*
X123168434Y-98852620D01*
X123050755Y-98841030D01*
X122899768Y-98795228D01*
X122760615Y-98720850D01*
X122638647Y-98620753D01*
X122538550Y-98498785D01*
X122464172Y-98359632D01*
X122418370Y-98208645D01*
X122402905Y-98051620D01*
X122418370Y-97894595D01*
X122464172Y-97743608D01*
X122538550Y-97604455D01*
X122638647Y-97482487D01*
X122760615Y-97382390D01*
X122899768Y-97308012D01*
X123050755Y-97262210D01*
X123168434Y-97250620D01*
X123247126Y-97250620D01*
X123364805Y-97262210D01*
X123364805Y-97262210D01*
G37*
M02*
